<svg width="2690" height="612" xmlns="http://www.w3.org/2000/svg" xmlns:xlink="http://www.w3.org/1999/xlink" xml:space="preserve" overflow="hidden"><defs><clipPath id="clip0"><rect x="237" y="627" width="2690" height="612"/></clipPath></defs><g clip-path="url(#clip0)" transform="translate(-237 -627)"><rect x="237.5" y="627.5" width="2689" height="611" stroke="#000000" stroke-width="1.14583" stroke-miterlimit="8" fill="#FFFFFF"/><rect x="367.5" y="724.5" width="65" height="65" stroke="#000000" stroke-width="1.14583" stroke-miterlimit="8" fill="#FF00FF"/><rect x="432.5" y="724.5" width="65" height="65" stroke="#000000" stroke-width="1.14583" stroke-miterlimit="8" fill="#FF00FF"/><rect x="497.5" y="724.5" width="65" height="65" stroke="#000000" stroke-width="1.14583" stroke-miterlimit="8" fill="#FF00FF"/><rect x="562.5" y="724.5" width="65" height="65" stroke="#000000" stroke-width="1.14583" stroke-miterlimit="8" fill="#FFFFFF"/><rect x="497.5" y="789.5" width="65" height="65" stroke="#000000" stroke-width="1.14583" stroke-miterlimit="8" fill="#FF00FF"/><rect x="562.5" y="789.5" width="65" height="65" stroke="#000000" stroke-width="1.14583" stroke-miterlimit="8" fill="#FFFFFF"/><rect x="303.5" y="854.5" width="63.9999" height="64.9999" stroke="#000000" stroke-width="1.14583" stroke-miterlimit="8" fill="#FFFFFF"/><rect x="367.5" y="854.5" width="65" height="64.9999" stroke="#000000" stroke-width="1.14583" stroke-miterlimit="8" fill="#FFFFFF"/><rect x="432.5" y="854.5" width="65" height="64.9999" stroke="#000000" stroke-width="1.14583" stroke-miterlimit="8" fill="#C0FFFF"/><rect x="497.5" y="854.5" width="65" height="64.9999" stroke="#000000" stroke-width="1.14583" stroke-miterlimit="8" fill="#C0FFFF"/><rect x="562.5" y="854.5" width="65" height="64.9999" stroke="#000000" stroke-width="1.14583" stroke-miterlimit="8" fill="#FFFFFF"/><rect x="303.5" y="919.5" width="63.9999" height="64.9999" stroke="#000000" stroke-width="1.14583" stroke-miterlimit="8" fill="#FFFFFF"/><rect x="367.5" y="919.5" width="65" height="64.9999" stroke="#000000" stroke-width="1.14583" stroke-miterlimit="8" fill="#FFFFFF"/><rect x="432.5" y="919.5" width="65" height="64.9999" stroke="#000000" stroke-width="1.14583" stroke-miterlimit="8" fill="#FFFFFF"/><rect x="497.5" y="919.5" width="65" height="64.9999" stroke="#000000" stroke-width="1.14583" stroke-miterlimit="8" fill="#C0FFFF"/><rect x="562.5" y="919.5" width="65" height="64.9999" stroke="#000000" stroke-width="1.14583" stroke-miterlimit="8" fill="#C0FFFF"/><rect x="303.5" y="978.5" width="63.9999" height="64.9999" stroke="#000000" stroke-width="1.14583" stroke-miterlimit="8" fill="#FFFFFF"/><rect x="367.5" y="978.5" width="65" height="64.9999" stroke="#000000" stroke-width="1.14583" stroke-miterlimit="8" fill="#FFFFFF"/><rect x="432.5" y="978.5" width="65" height="64.9999" stroke="#000000" stroke-width="1.14583" stroke-miterlimit="8" fill="#FFFFFF"/><rect x="497.5" y="978.5" width="65" height="64.9999" stroke="#000000" stroke-width="1.14583" stroke-miterlimit="8" fill="#FFFFFF"/><rect x="562.5" y="978.5" width="65" height="64.9999" stroke="#000000" stroke-width="1.14583" stroke-miterlimit="8" fill="#FFFFFF"/><rect x="746.5" y="724.5" width="65" height="65" stroke="#000000" stroke-width="1.14583" stroke-miterlimit="8" fill="#00FF00"/><rect x="811.5" y="724.5" width="63.9999" height="65" stroke="#000000" stroke-width="1.14583" stroke-miterlimit="8" fill="#FF00FF"/><rect x="875.5" y="724.5" width="64.9999" height="65" stroke="#000000" stroke-width="1.14583" stroke-miterlimit="8" fill="#FF00FF"/><rect x="940.5" y="724.5" width="65" height="65" stroke="#000000" stroke-width="1.14583" stroke-miterlimit="8" fill="#FF00FF"/><rect x="1005.5" y="724.5" width="64.9999" height="65" stroke="#000000" stroke-width="1.14583" stroke-miterlimit="8" fill="#FFFFFF"/><rect x="746.5" y="789.5" width="65" height="65" stroke="#000000" stroke-width="1.14583" stroke-miterlimit="8" fill="#00FF00"/><rect x="811.5" y="789.5" width="63.9999" height="65" stroke="#000000" stroke-width="1.14583" stroke-miterlimit="8" fill="#00FF00"/><rect x="940.5" y="789.5" width="65" height="65" stroke="#000000" stroke-width="1.14583" stroke-miterlimit="8" fill="#FF00FF"/><rect x="1005.5" y="789.5" width="64.9999" height="65" stroke="#000000" stroke-width="1.14583" stroke-miterlimit="8" fill="#FFFFFF"/><rect x="746.5" y="854.5" width="65" height="64.9999" stroke="#000000" stroke-width="1.14583" stroke-miterlimit="8" fill="#FFFFFF"/><rect x="811.5" y="854.5" width="63.9999" height="64.9999" stroke="#000000" stroke-width="1.14583" stroke-miterlimit="8" fill="#FFFFFF"/><rect x="875.5" y="854.5" width="64.9999" height="64.9999" stroke="#000000" stroke-width="1.14583" stroke-miterlimit="8" fill="#C0FFFF"/><rect x="940.5" y="854.5" width="65" height="64.9999" stroke="#000000" stroke-width="1.14583" stroke-miterlimit="8" fill="#C0FFFF"/><rect x="1005.5" y="854.5" width="64.9999" height="64.9999" stroke="#000000" stroke-width="1.14583" stroke-miterlimit="8" fill="#FFFFFF"/><rect x="746.5" y="919.5" width="65" height="64.9999" stroke="#000000" stroke-width="1.14583" stroke-miterlimit="8" fill="#FFFFFF"/><rect x="811.5" y="919.5" width="63.9999" height="64.9999" stroke="#000000" stroke-width="1.14583" stroke-miterlimit="8" fill="#FFFFFF"/><rect x="875.5" y="919.5" width="64.9999" height="64.9999" stroke="#000000" stroke-width="1.14583" stroke-miterlimit="8" fill="#FFFFFF"/><rect x="940.5" y="919.5" width="65" height="64.9999" stroke="#000000" stroke-width="1.14583" stroke-miterlimit="8" fill="#C0FFFF"/><rect x="1005.5" y="919.5" width="64.9999" height="64.9999" stroke="#000000" stroke-width="1.14583" stroke-miterlimit="8" fill="#C0FFFF"/><rect x="746.5" y="978.5" width="65" height="64.9999" stroke="#000000" stroke-width="1.14583" stroke-miterlimit="8" fill="#FFFFFF"/><rect x="811.5" y="978.5" width="63.9999" height="64.9999" stroke="#000000" stroke-width="1.14583" stroke-miterlimit="8" fill="#FFFFFF"/><rect x="875.5" y="978.5" width="64.9999" height="64.9999" stroke="#000000" stroke-width="1.14583" stroke-miterlimit="8" fill="#FFFFFF"/><rect x="940.5" y="978.5" width="65" height="64.9999" stroke="#000000" stroke-width="1.14583" stroke-miterlimit="8" fill="#FFFFFF"/><rect x="1005.5" y="978.5" width="64.9999" height="64.9999" stroke="#000000" stroke-width="1.14583" stroke-miterlimit="8" fill="#FFFFFF"/><rect x="875" y="789" width="65.0003" height="65" stroke="#FF0000" stroke-width="10.3125" stroke-miterlimit="8" fill="#00FF00"/><path d="M302.545 1139.44 444.628 1139.44 444.628 1176.44 302.545 1176.44Z" fill="#00FF00" fill-rule="evenodd"/><path d="M444.628 1139.44 462.388 1139.44 462.388 1176.44 444.628 1176.44Z" fill="#00FF00" fill-rule="evenodd"/><path d="M462.388 1139.44 533.43 1139.44 533.43 1176.44 462.388 1176.44Z" fill="#00FF00" fill-rule="evenodd"/><path d="M533.43 1139.44 551.191 1139.44 551.191 1176.44 533.43 1176.44Z" fill="#00FF00" fill-rule="evenodd"/><path d="M551.191 1139.44 639.993 1139.44 639.993 1176.44 551.191 1176.44Z" fill="#00FF00" fill-rule="evenodd"/><text font-family="Consolas,Consolas_MSFontService,sans-serif" font-weight="400" font-size="32" transform="matrix(1 0 0 1 302.545 1091)">DP: <tspan font-family="Wingdings,Wingdings_MSFontService,sans-serif" font-size="32" x="71.0417" y="0"></tspan><tspan font-size="32" x="0" y="39">CC: </tspan><tspan font-family="Wingdings,Wingdings_MSFontService,sans-serif" font-size="32" x="71.0417" y="39"></tspan><tspan font-size="32" x="0" y="77">Current </tspan>C<tspan font-size="32" x="159.844" y="77">odel</tspan><tspan font-size="32" x="230.885" y="77"> </tspan><tspan font-size="32" x="248.646" y="77">Block</tspan></text><path d="M747.893 1138.4 836.696 1138.4 836.696 1175.4 747.893 1175.4Z" fill="#FF0000" fill-rule="evenodd"/><path d="M836.696 1138.4 854.456 1138.4 854.456 1175.4 836.696 1175.4Z" fill="#FF0000" fill-rule="evenodd"/><path d="M854.456 1138.4 907.737 1138.4 907.737 1175.4 854.456 1175.4Z" fill="#FF0000" fill-rule="evenodd"/><path d="M907.737 1138.4 925.498 1138.4 925.498 1175.4 907.737 1175.4Z" fill="#FF0000" fill-rule="evenodd"/><text font-family="Consolas,Consolas_MSFontService,sans-serif" font-weight="400" font-size="32" transform="matrix(1 0 0 1 747.893 1090)">DP: <tspan font-family="Wingdings,Wingdings_MSFontService,sans-serif" font-size="32" x="71.0417" y="0"></tspan><tspan font-size="32" x="0" y="39">CC: </tspan><tspan font-family="Wingdings,Wingdings_MSFontService,sans-serif" font-size="32" x="71.0417" y="39"></tspan><tspan font-size="32" x="0" y="77">Codel</tspan><tspan font-size="32" x="88.8021" y="77"> </tspan><tspan font-size="32" x="106.563" y="77">Edg</tspan>e</text><rect x="1261.5" y="723.5" width="65" height="65" stroke="#000000" stroke-width="1.14583" stroke-miterlimit="8" fill="#FF00FF"/><rect x="1326.5" y="723.5" width="65" height="65" stroke="#000000" stroke-width="1.14583" stroke-miterlimit="8" fill="#FF00FF"/><rect x="1391.5" y="723.5" width="65" height="65" stroke="#000000" stroke-width="1.14583" stroke-miterlimit="8" fill="#FF00FF"/><rect x="1456.5" y="723.5" width="65" height="65" stroke="#000000" stroke-width="1.14583" stroke-miterlimit="8" fill="#FFFFFF"/><rect x="1391.5" y="788.5" width="65" height="64.9999" stroke="#000000" stroke-width="1.14583" stroke-miterlimit="8" fill="#FF00FF"/><rect x="1456.5" y="788.5" width="65" height="64.9999" stroke="#000000" stroke-width="1.14583" stroke-miterlimit="8" fill="#FFFFFF"/><rect x="1196.5" y="853.5" width="65" height="64.9999" stroke="#000000" stroke-width="1.14583" stroke-miterlimit="8" fill="#FFFFFF"/><rect x="1326.5" y="853.5" width="65" height="64.9999" stroke="#000000" stroke-width="1.14583" stroke-miterlimit="8" fill="#C0FFFF"/><rect x="1391.5" y="853.5" width="65" height="64.9999" stroke="#000000" stroke-width="1.14583" stroke-miterlimit="8" fill="#C0FFFF"/><rect x="1456.5" y="853.5" width="65" height="64.9999" stroke="#000000" stroke-width="1.14583" stroke-miterlimit="8" fill="#FFFFFF"/><rect x="1196.5" y="918.5" width="65" height="65" stroke="#000000" stroke-width="1.14583" stroke-miterlimit="8" fill="#FFFFFF"/><rect x="1391.5" y="918.5" width="65" height="65" stroke="#000000" stroke-width="1.14583" stroke-miterlimit="8" fill="#C0FFFF"/><rect x="1456.5" y="918.5" width="65" height="65" stroke="#000000" stroke-width="1.14583" stroke-miterlimit="8" fill="#C0FFFF"/><rect x="1196.5" y="977.5" width="65" height="65" stroke="#000000" stroke-width="1.14583" stroke-miterlimit="8" fill="#FFFFFF"/><rect x="1261.5" y="977.5" width="65" height="65" stroke="#000000" stroke-width="1.14583" stroke-miterlimit="8" fill="#FFFFFF"/><rect x="1326.5" y="977.5" width="65" height="65" stroke="#000000" stroke-width="1.14583" stroke-miterlimit="8" fill="#FFFFFF"/><rect x="1391.5" y="977.5" width="65" height="65" stroke="#000000" stroke-width="1.14583" stroke-miterlimit="8" fill="#FFFFFF"/><rect x="1456.5" y="977.5" width="65" height="65" stroke="#000000" stroke-width="1.14583" stroke-miterlimit="8" fill="#FFFFFF"/><rect x="1639.5" y="723.5" width="65.0004" height="65" stroke="#000000" stroke-width="1.14583" stroke-miterlimit="8" fill="#00FF00"/><rect x="1704.5" y="723.5" width="65" height="65" stroke="#000000" stroke-width="1.14583" stroke-miterlimit="8" fill="#FF00FF"/><rect x="1769.5" y="723.5" width="65" height="65" stroke="#000000" stroke-width="1.14583" stroke-miterlimit="8" fill="#FF00FF"/><rect x="1834.5" y="723.5" width="65" height="65" stroke="#000000" stroke-width="1.14583" stroke-miterlimit="8" fill="#FF00FF"/><rect x="1899.5" y="723.5" width="65" height="65" stroke="#000000" stroke-width="1.14583" stroke-miterlimit="8" fill="#FFFFFF"/><rect x="1639.5" y="788.5" width="65.0004" height="64.9999" stroke="#000000" stroke-width="1.14583" stroke-miterlimit="8" fill="#00FF00"/><rect x="1704.5" y="788.5" width="65" height="64.9999" stroke="#000000" stroke-width="1.14583" stroke-miterlimit="8" fill="#00FF00"/><rect x="1834.5" y="788.5" width="65" height="64.9999" stroke="#000000" stroke-width="1.14583" stroke-miterlimit="8" fill="#FF00FF"/><rect x="1899.5" y="788.5" width="65" height="64.9999" stroke="#000000" stroke-width="1.14583" stroke-miterlimit="8" fill="#FFFFFF"/><rect x="1639.5" y="853.5" width="65.0004" height="64.9999" stroke="#000000" stroke-width="1.14583" stroke-miterlimit="8" fill="#FFFFFF"/><rect x="1704.5" y="853.5" width="65" height="64.9999" stroke="#000000" stroke-width="1.14583" stroke-miterlimit="8" fill="#00FF00"/><rect x="1769.5" y="853.5" width="65" height="64.9999" stroke="#000000" stroke-width="1.14583" stroke-miterlimit="8" fill="#C0FFFF"/><rect x="1834.5" y="853.5" width="65" height="64.9999" stroke="#000000" stroke-width="1.14583" stroke-miterlimit="8" fill="#C0FFFF"/><rect x="1899.5" y="853.5" width="65" height="64.9999" stroke="#000000" stroke-width="1.14583" stroke-miterlimit="8" fill="#FFFFFF"/><rect x="1639.5" y="918.5" width="65.0004" height="65" stroke="#000000" stroke-width="1.14583" stroke-miterlimit="8" fill="#FFFFFF"/><rect x="1704.5" y="918.5" width="65" height="65" stroke="#000000" stroke-width="1.14583" stroke-miterlimit="8" fill="#00FF00"/><rect x="1834.5" y="918.5" width="65" height="65" stroke="#000000" stroke-width="1.14583" stroke-miterlimit="8" fill="#C0FFFF"/><rect x="1899.5" y="918.5" width="65" height="65" stroke="#000000" stroke-width="1.14583" stroke-miterlimit="8" fill="#C0FFFF"/><rect x="1639.5" y="977.5" width="65.0004" height="65" stroke="#000000" stroke-width="1.14583" stroke-miterlimit="8" fill="#FFFFFF"/><rect x="1704.5" y="977.5" width="65" height="65" stroke="#000000" stroke-width="1.14583" stroke-miterlimit="8" fill="#FFFFFF"/><rect x="1769.5" y="977.5" width="65" height="65" stroke="#000000" stroke-width="1.14583" stroke-miterlimit="8" fill="#FFFFFF"/><rect x="1834.5" y="977.5" width="65" height="65" stroke="#000000" stroke-width="1.14583" stroke-miterlimit="8" fill="#FFFFFF"/><rect x="1899.5" y="977.5" width="65" height="65" stroke="#000000" stroke-width="1.14583" stroke-miterlimit="8" fill="#FFFFFF"/><rect x="1769" y="788" width="65" height="65" stroke="#FF0000" stroke-width="10.3125" stroke-miterlimit="8" fill="#00FF00"/><path d="M1199.73 1138.68 1341.82 1138.68 1341.82 1175.68 1199.73 1175.68Z" fill="#00FF00" fill-rule="evenodd"/><path d="M1341.82 1138.68 1430.62 1138.68 1430.62 1175.68 1341.82 1175.68Z" fill="#00FF00" fill-rule="evenodd"/><path d="M1430.62 1138.68 1448.38 1138.68 1448.38 1175.68 1430.62 1175.68Z" fill="#00FF00" fill-rule="evenodd"/><path d="M1448.38 1138.68 1537.18 1138.68 1537.18 1175.68 1448.38 1175.68Z" fill="#00FF00" fill-rule="evenodd"/><text font-family="Consolas,Consolas_MSFontService,sans-serif" font-weight="400" font-size="32" transform="matrix(1 0 0 1 1199.73 1091)">DP: <tspan font-family="Wingdings,Wingdings_MSFontService,sans-serif" font-size="32" x="71.0416" y="0"></tspan><tspan font-size="32" x="0" y="39">CC: </tspan><tspan font-family="Wingdings,Wingdings_MSFontService,sans-serif" font-size="32" x="71.0416" y="39"></tspan><tspan font-size="32" x="0" y="77">Current </tspan><tspan font-size="32" x="142.083" y="77">Codel</tspan><tspan font-size="32" x="230.885" y="77"> </tspan><tspan font-size="32" x="248.646" y="77">Block</tspan></text><path d="M1638.21 1139.93 1727.01 1139.93 1727.01 1176.93 1638.21 1176.93Z" fill="#FF0000" fill-rule="evenodd"/><path d="M1727.01 1139.93 1744.77 1139.93 1744.77 1176.93 1727.01 1176.93Z" fill="#FF0000" fill-rule="evenodd"/><path d="M1744.77 1139.93 1815.81 1139.93 1815.81 1176.93 1744.77 1176.93Z" fill="#FF0000" fill-rule="evenodd"/><text font-family="Consolas,Consolas_MSFontService,sans-serif" font-weight="400" font-size="32" transform="matrix(1 0 0 1 1638.21 1092)">DP: <tspan font-family="Wingdings,Wingdings_MSFontService,sans-serif" font-size="32" x="71.0418" y="0"></tspan><tspan font-size="32" x="0" y="39">CC: </tspan><tspan font-family="Wingdings,Wingdings_MSFontService,sans-serif" font-size="32" x="71.0418" y="39"></tspan><tspan font-size="32" x="0" y="77">Codel</tspan><tspan font-size="32" x="88.8021" y="77"> </tspan><tspan font-size="32" x="106.563" y="77">Edge</tspan></text><rect x="1769" y="918" width="65" height="64.9999" stroke="#FF0000" stroke-width="10.3125" stroke-miterlimit="8" fill="#00FF00"/><rect x="303.5" y="724.5" width="63.9999" height="65" stroke="#000000" stroke-width="1.14583" stroke-miterlimit="8" fill="#00FF00"/><rect x="303.5" y="789.5" width="63.9999" height="65" stroke="#000000" stroke-width="1.14583" stroke-miterlimit="8" fill="#00FF00"/><rect x="367.5" y="789.5" width="65" height="65" stroke="#000000" stroke-width="1.14583" stroke-miterlimit="8" fill="#00FF00"/><rect x="432.5" y="789.5" width="65" height="65" stroke="#000000" stroke-width="1.14583" stroke-miterlimit="8" fill="#00FF00"/><rect x="1196.5" y="723.5" width="65" height="65" stroke="#000000" stroke-width="1.14583" stroke-miterlimit="8" fill="#00FF00"/><rect x="1196.5" y="788.5" width="65" height="64.9999" stroke="#000000" stroke-width="1.14583" stroke-miterlimit="8" fill="#00FF00"/><rect x="1261.5" y="788.5" width="65" height="64.9999" stroke="#000000" stroke-width="1.14583" stroke-miterlimit="8" fill="#00FF00"/><rect x="1326.5" y="788.5" width="65" height="64.9999" stroke="#000000" stroke-width="1.14583" stroke-miterlimit="8" fill="#00FF00"/><rect x="1261.5" y="853.5" width="65" height="64.9999" stroke="#000000" stroke-width="1.14583" stroke-miterlimit="8" fill="#00FF00"/><rect x="1261.5" y="918.5" width="65" height="59.0001" stroke="#000000" stroke-width="1.14583" stroke-miterlimit="8" fill="#00FF00"/><rect x="1326.5" y="918.5" width="65" height="59.0001" stroke="#000000" stroke-width="1.14583" stroke-miterlimit="8" fill="#00FF00"/><rect x="2156.5" y="722.5" width="65.0002" height="64.9999" stroke="#000000" stroke-width="1.14583" stroke-miterlimit="8" fill="#FF00FF"/><rect x="2221.5" y="722.5" width="65" height="64.9999" stroke="#000000" stroke-width="1.14583" stroke-miterlimit="8" fill="#FF00FF"/><rect x="2286.5" y="722.5" width="65" height="64.9999" stroke="#000000" stroke-width="1.14583" stroke-miterlimit="8" fill="#FF00FF"/><rect x="2351.5" y="722.5" width="65" height="64.9999" stroke="#000000" stroke-width="1.14583" stroke-miterlimit="8" fill="#FFFFFF"/><rect x="2286.5" y="787.5" width="65" height="64.9999" stroke="#000000" stroke-width="1.14583" stroke-miterlimit="8" fill="#FF00FF"/><rect x="2351.5" y="787.5" width="65" height="64.9999" stroke="#000000" stroke-width="1.14583" stroke-miterlimit="8" fill="#FFFFFF"/><rect x="2091.5" y="852.5" width="65" height="65" stroke="#000000" stroke-width="1.14583" stroke-miterlimit="8" fill="#FFFFFF"/><rect x="2221.5" y="852.5" width="65" height="65" stroke="#000000" stroke-width="1.14583" stroke-miterlimit="8" fill="#00FF00"/><rect x="2286.5" y="852.5" width="65" height="65" stroke="#000000" stroke-width="1.14583" stroke-miterlimit="8" fill="#C0FFFF"/><rect x="2351.5" y="852.5" width="65" height="65" stroke="#000000" stroke-width="1.14583" stroke-miterlimit="8" fill="#FFFFFF"/><rect x="2091.5" y="917.5" width="65" height="64.9999" stroke="#000000" stroke-width="1.14583" stroke-miterlimit="8" fill="#FFFFFF"/><rect x="2286.5" y="917.5" width="65" height="64.9999" stroke="#000000" stroke-width="1.14583" stroke-miterlimit="8" fill="#C0FFFF"/><rect x="2351.5" y="917.5" width="65" height="64.9999" stroke="#000000" stroke-width="1.14583" stroke-miterlimit="8" fill="#C0FFFF"/><rect x="2091.5" y="976.5" width="65" height="65" stroke="#000000" stroke-width="1.14583" stroke-miterlimit="8" fill="#FFFFFF"/><rect x="2156.5" y="976.5" width="65.0002" height="65" stroke="#000000" stroke-width="1.14583" stroke-miterlimit="8" fill="#FFFFFF"/><rect x="2221.5" y="976.5" width="65" height="65" stroke="#000000" stroke-width="1.14583" stroke-miterlimit="8" fill="#FFFFFF"/><rect x="2286.5" y="976.5" width="65" height="65" stroke="#000000" stroke-width="1.14583" stroke-miterlimit="8" fill="#FFFFFF"/><rect x="2351.5" y="976.5" width="65" height="65" stroke="#000000" stroke-width="1.14583" stroke-miterlimit="8" fill="#FFFFFF"/><rect x="2534.5" y="722.5" width="65" height="64.9999" stroke="#000000" stroke-width="1.14583" stroke-miterlimit="8" fill="#00FF00"/><rect x="2599.5" y="722.5" width="65" height="64.9999" stroke="#000000" stroke-width="1.14583" stroke-miterlimit="8" fill="#FF00FF"/><rect x="2664.5" y="722.5" width="65" height="64.9999" stroke="#000000" stroke-width="1.14583" stroke-miterlimit="8" fill="#FF00FF"/><rect x="2729.5" y="722.5" width="65" height="64.9999" stroke="#000000" stroke-width="1.14583" stroke-miterlimit="8" fill="#FF00FF"/><rect x="2794.5" y="722.5" width="65.0002" height="64.9999" stroke="#000000" stroke-width="1.14583" stroke-miterlimit="8" fill="#FFFFFF"/><rect x="2534.5" y="787.5" width="65" height="64.9999" stroke="#000000" stroke-width="1.14583" stroke-miterlimit="8" fill="#00FF00"/><rect x="2599.5" y="787.5" width="65" height="64.9999" stroke="#000000" stroke-width="1.14583" stroke-miterlimit="8" fill="#00FF00"/><rect x="2729.5" y="787.5" width="65" height="64.9999" stroke="#000000" stroke-width="1.14583" stroke-miterlimit="8" fill="#FF00FF"/><rect x="2794.5" y="787.5" width="65.0002" height="64.9999" stroke="#000000" stroke-width="1.14583" stroke-miterlimit="8" fill="#FFFFFF"/><rect x="2534.5" y="852.5" width="65" height="65" stroke="#000000" stroke-width="1.14583" stroke-miterlimit="8" fill="#FFFFFF"/><rect x="2599.5" y="852.5" width="65" height="65" stroke="#000000" stroke-width="1.14583" stroke-miterlimit="8" fill="#00FF00"/><rect x="2729.5" y="852.5" width="65" height="65" stroke="#000000" stroke-width="1.14583" stroke-miterlimit="8" fill="#C0FFFF"/><rect x="2794.5" y="852.5" width="65.0002" height="65" stroke="#000000" stroke-width="1.14583" stroke-miterlimit="8" fill="#FFFFFF"/><rect x="2534.5" y="917.5" width="65" height="64.9999" stroke="#000000" stroke-width="1.14583" stroke-miterlimit="8" fill="#FFFFFF"/><rect x="2599.5" y="917.5" width="65" height="64.9999" stroke="#000000" stroke-width="1.14583" stroke-miterlimit="8" fill="#00FF00"/><rect x="2729.5" y="917.5" width="65" height="64.9999" stroke="#000000" stroke-width="1.14583" stroke-miterlimit="8" fill="#C0FFFF"/><rect x="2794.5" y="917.5" width="65.0002" height="64.9999" stroke="#000000" stroke-width="1.14583" stroke-miterlimit="8" fill="#C0FFFF"/><rect x="2534.5" y="976.5" width="65" height="65" stroke="#000000" stroke-width="1.14583" stroke-miterlimit="8" fill="#FFFFFF"/><rect x="2599.5" y="976.5" width="65" height="65" stroke="#000000" stroke-width="1.14583" stroke-miterlimit="8" fill="#FFFFFF"/><rect x="2664.5" y="976.5" width="65" height="65" stroke="#000000" stroke-width="1.14583" stroke-miterlimit="8" fill="#FFFFFF"/><rect x="2729.5" y="976.5" width="65" height="65" stroke="#000000" stroke-width="1.14583" stroke-miterlimit="8" fill="#FFFFFF"/><rect x="2794.5" y="976.5" width="65.0002" height="65" stroke="#000000" stroke-width="1.14583" stroke-miterlimit="8" fill="#FFFFFF"/><rect x="2664" y="787" width="65" height="65.0003" stroke="#FF0000" stroke-width="10.3125" stroke-miterlimit="8" fill="#00FF00"/><path d="M2532.77 1138.68 2621.58 1138.68 2621.58 1175.68 2532.77 1175.68Z" fill="#FF0000" fill-rule="evenodd"/><path d="M2621.58 1138.68 2639.34 1138.68 2639.34 1175.68 2621.58 1175.68Z" fill="#FF0000" fill-rule="evenodd"/><path d="M2639.34 1138.68 2710.38 1138.68 2710.38 1175.68 2639.34 1175.68Z" fill="#FF0000" fill-rule="evenodd"/><text font-family="Consolas,Consolas_MSFontService,sans-serif" font-weight="400" font-size="32" transform="matrix(1 0 0 1 2532.77 1091)">DP: <tspan font-family="Wingdings,Wingdings_MSFontService,sans-serif" font-size="32" x="71.0418" y="0"></tspan><tspan font-size="32" x="0" y="39">CC: </tspan><tspan font-family="Wingdings,Wingdings_MSFontService,sans-serif" font-size="32" x="71.0418" y="39"></tspan><tspan font-size="32" x="0" y="77">Codel</tspan><tspan font-size="32" x="88.802" y="77"> </tspan><tspan font-size="32" x="106.563" y="77">Edge</tspan></text><rect x="2664" y="917" width="65" height="65" stroke="#FF0000" stroke-width="10.3125" stroke-miterlimit="8" fill="#00FF00"/><rect x="2091.5" y="722.5" width="65" height="64.9999" stroke="#000000" stroke-width="1.14583" stroke-miterlimit="8" fill="#00FF00"/><rect x="2091.5" y="787.5" width="65" height="64.9999" stroke="#000000" stroke-width="1.14583" stroke-miterlimit="8" fill="#00FF00"/><rect x="2156.5" y="787.5" width="65.0002" height="64.9999" stroke="#000000" stroke-width="1.14583" stroke-miterlimit="8" fill="#00FF00"/><rect x="2221.5" y="787.5" width="65" height="64.9999" stroke="#000000" stroke-width="1.14583" stroke-miterlimit="8" fill="#00FF00"/><rect x="2156.5" y="852.5" width="65.0002" height="65" stroke="#000000" stroke-width="1.14583" stroke-miterlimit="8" fill="#00FF00"/><rect x="2156.5" y="917.5" width="65.0002" height="59.0001" stroke="#000000" stroke-width="1.14583" stroke-miterlimit="8" fill="#00FF00"/><rect x="2221.5" y="917.5" width="65" height="59.0001" stroke="#000000" stroke-width="1.14583" stroke-miterlimit="8" fill="#00FF00"/><path d="M2092.17 1138.68 2234.25 1138.68 2234.25 1175.68 2092.17 1175.68Z" fill="#00FF00" fill-rule="evenodd"/><path d="M2234.25 1138.68 2323.06 1138.68 2323.06 1175.68 2234.25 1175.68Z" fill="#00FF00" fill-rule="evenodd"/><path d="M2323.06 1138.68 2340.82 1138.68 2340.82 1175.68 2323.06 1175.68Z" fill="#00FF00" fill-rule="evenodd"/><path d="M2340.82 1138.68 2429.62 1138.68 2429.62 1175.68 2340.82 1175.68Z" fill="#00FF00" fill-rule="evenodd"/><text font-family="Consolas,Consolas_MSFontService,sans-serif" font-weight="400" font-size="32" transform="matrix(1 0 0 1 2092.17 1091)">DP: <tspan font-family="Wingdings,Wingdings_MSFontService,sans-serif" font-size="32" x="71.0418" y="0"></tspan><tspan font-size="32" x="0" y="39">CC: </tspan><tspan font-family="Wingdings,Wingdings_MSFontService,sans-serif" font-size="32" x="71.0418" y="39"></tspan><tspan font-size="32" x="0" y="77">Current </tspan><tspan font-size="32" x="142.084" y="77">Codel</tspan><tspan font-size="32" x="230.886" y="77"> </tspan><tspan font-size="32" x="248.646" y="77">Block</tspan></text><rect x="2664" y="852" width="65" height="64.9999" stroke="#FF0000" stroke-width="10.3125" stroke-miterlimit="8" fill="#00FF00"/><text font-family="Consolas,Consolas_MSFontService,sans-serif" font-weight="400" font-size="32" transform="matrix(1 0 0 1 2086.72 689)">Example 3:<tspan font-size="32" x="-1779.88" y="-2">Example 1:</tspan><tspan font-size="32" x="-892.926" y="0">Example 2:</tspan></text></g></svg>