<svg width="2255" height="495" xmlns="http://www.w3.org/2000/svg" xmlns:xlink="http://www.w3.org/1999/xlink" xml:space="preserve" overflow="hidden"><defs><clipPath id="clip0"><rect x="851" y="1474" width="2255" height="495"/></clipPath></defs><g clip-path="url(#clip0)" transform="translate(-851 -1474)"><path d="M853.758 1477.23 1228.36 1477.23 1228.36 1599.58 853.758 1599.58Z" fill="#FFC0C0" fill-rule="evenodd"/><path d="M1228.36 1477.23 1602.97 1477.23 1602.97 1599.58 1228.36 1599.58Z" fill="#FFFFC0" fill-rule="evenodd"/><path d="M1602.97 1477.23 1977.57 1477.23 1977.57 1599.58 1602.97 1599.58Z" fill="#C0FFC0" fill-rule="evenodd"/><path d="M1977.57 1477.23 2352.18 1477.23 2352.18 1599.58 1977.57 1599.58Z" fill="#C0FFFF" fill-rule="evenodd"/><path d="M2352.18 1477.23 2726.78 1477.23 2726.78 1599.58 2352.18 1599.58Z" fill="#C0C0FF" fill-rule="evenodd"/><path d="M2726.78 1477.23 3101.39 1477.23 3101.39 1599.58 2726.78 1599.58Z" fill="#FFC0FF" fill-rule="evenodd"/><path d="M853.758 1599.58 1228.36 1599.58 1228.36 1720.58 853.758 1720.58Z" fill="#FF0000" fill-rule="evenodd"/><path d="M1228.36 1599.58 1602.97 1599.58 1602.97 1720.58 1228.36 1720.58Z" fill="#FFFF00" fill-rule="evenodd"/><path d="M1602.97 1599.58 1977.57 1599.58 1977.57 1720.58 1602.97 1720.58Z" fill="#00FF00" fill-rule="evenodd"/><path d="M1977.57 1599.58 2352.18 1599.58 2352.18 1720.58 1977.57 1720.58Z" fill="#00FFFF" fill-rule="evenodd"/><path d="M2352.18 1599.58 2726.78 1599.58 2726.78 1720.58 2352.18 1720.58Z" fill="#0000FF" fill-rule="evenodd"/><path d="M2726.78 1599.58 3101.39 1599.58 3101.39 1720.58 2726.78 1720.58Z" fill="#FF00FF" fill-rule="evenodd"/><path d="M853.758 1720.58 1228.36 1720.58 1228.36 1841.58 853.758 1841.58Z" fill="#C00000" fill-rule="evenodd"/><path d="M1228.36 1720.58 1602.97 1720.58 1602.97 1841.58 1228.36 1841.58Z" fill="#C0C000" fill-rule="evenodd"/><path d="M1602.97 1720.58 1977.57 1720.58 1977.57 1841.58 1602.97 1841.58Z" fill="#00C000" fill-rule="evenodd"/><path d="M1977.57 1720.58 2352.18 1720.58 2352.18 1841.58 1977.57 1841.58Z" fill="#00C0C0" fill-rule="evenodd"/><path d="M2352.18 1720.58 2726.78 1720.58 2726.78 1841.58 2352.18 1841.58Z" fill="#0000C0" fill-rule="evenodd"/><path d="M2726.78 1720.58 3101.39 1720.58 3101.39 1841.58 2726.78 1841.58Z" fill="#C000C0" fill-rule="evenodd"/><path d="M853.758 1841.58 1977.57 1841.58 1977.57 1962.58 853.758 1962.58Z" fill-rule="evenodd"/><path d="M1977.57 1841.58 3101.39 1841.58 3101.39 1962.58 1977.57 1962.58Z" fill="#FFFFFF" fill-rule="evenodd"/><path d="M1228.36 1474.94 1228.36 1843.88" stroke="#FFFFFF" stroke-width="4.58333" stroke-linejoin="round" stroke-miterlimit="10" fill="none" fill-rule="evenodd"/><path d="M1602.97 1474.94 1602.97 1720.58" stroke="#FFFFFF" stroke-width="4.58333" stroke-linejoin="round" stroke-miterlimit="10" fill="none" fill-rule="evenodd"/><path d="M1602.97 1720.58 1602.97 1843.88" stroke="#FFFFFF" stroke-width="4.58333" stroke-linejoin="round" stroke-miterlimit="10" fill="none" fill-rule="evenodd"/><path d="M1977.57 1474.94 1977.57 1720.58" stroke="#FFFFFF" stroke-width="4.58333" stroke-linejoin="round" stroke-miterlimit="10" fill="none" fill-rule="evenodd"/><path d="M1977.57 1720.58 1977.57 1964.88" stroke="#FFFFFF" stroke-width="4.58333" stroke-linejoin="round" stroke-miterlimit="10" fill="none" fill-rule="evenodd"/><path d="M2352.18 1474.94 2352.18 1843.88" stroke="#FFFFFF" stroke-width="4.58333" stroke-linejoin="round" stroke-miterlimit="10" fill="none" fill-rule="evenodd"/><path d="M2726.78 1474.94 2726.78 1843.88" stroke="#FFFFFF" stroke-width="4.58333" stroke-linejoin="round" stroke-miterlimit="10" fill="none" fill-rule="evenodd"/><path d="M851.467 1599.58 3103.68 1599.58" stroke="#FFFFFF" stroke-width="4.58333" stroke-linejoin="round" stroke-miterlimit="10" fill="none" fill-rule="evenodd"/><path d="M851.467 1720.58 1602.97 1720.58" stroke="#FFFFFF" stroke-width="4.58333" stroke-linejoin="round" stroke-miterlimit="10" fill="none" fill-rule="evenodd"/><path d="M1602.97 1720.58 1977.57 1720.58" stroke="#FFFFFF" stroke-width="4.58333" stroke-linejoin="round" stroke-miterlimit="10" fill="none" fill-rule="evenodd"/><path d="M1977.57 1720.58 3103.68 1720.58" stroke="#FFFFFF" stroke-width="4.58333" stroke-linejoin="round" stroke-miterlimit="10" fill="none" fill-rule="evenodd"/><path d="M851.467 1841.58 3103.68 1841.58" stroke="#FFFFFF" stroke-width="4.58333" stroke-linejoin="round" stroke-miterlimit="10" fill="none" fill-rule="evenodd"/><path d="M853.758 1474.94 853.758 1964.88" stroke="#FFFFFF" stroke-width="4.58333" stroke-linejoin="round" stroke-miterlimit="10" fill="none" fill-rule="evenodd"/><path d="M3101.39 1474.94 3101.39 1841.58" stroke="#FFFFFF" stroke-width="4.58333" stroke-linejoin="round" stroke-miterlimit="10" fill="none" fill-rule="evenodd"/><path d="M3101.39 1841.58 3101.39 1964.88" stroke="#FFFFFF" stroke-width="4.58333" stroke-linejoin="round" stroke-miterlimit="10" fill="none" fill-rule="evenodd"/><path d="M851.467 1477.23 3103.68 1477.23" stroke="#FFFFFF" stroke-width="4.58333" stroke-linejoin="round" stroke-miterlimit="10" fill="none" fill-rule="evenodd"/><path d="M851.467 1962.58 1977.57 1962.58" stroke="#FFFFFF" stroke-width="4.58333" stroke-linejoin="round" stroke-miterlimit="10" fill="none" fill-rule="evenodd"/><path d="M1977.57 1962.58 3103.68 1962.58" stroke="#FFFFFF" stroke-width="4.58333" stroke-linejoin="round" stroke-miterlimit="10" fill="none" fill-rule="evenodd"/><text font-family="MesloLGM Nerd Font,MesloLGM Nerd Font_MSFontService,sans-serif" font-weight="400" font-size="37" transform="matrix(1 0 0 1 886.758 1527)">Light red<tspan font-size="37" x="0" y="44">#FFC0C0</tspan><tspan font-size="37" x="374.605" y="0">Light yellow</tspan><tspan font-size="37" x="374.605" y="44">#FFFFC0</tspan><tspan font-size="37" x="749.21" y="0">Light green</tspan><tspan font-size="37" x="749.21" y="44">#C0FFC0</tspan><tspan font-size="37" x="1123.82" y="0">Light cyan</tspan><tspan font-size="37" x="1123.82" y="44">#C0FFFF</tspan><tspan font-size="37" x="1498.42" y="0">Light blue</tspan><tspan font-size="37" x="1498.42" y="44">#C0C0FF</tspan><tspan font-size="37" x="1873.03" y="0">Light magenta</tspan><tspan font-size="37" x="1873.03" y="44">#FFC0FF</tspan><tspan font-size="37" x="0" y="122">Red</tspan><tspan font-size="37" x="0" y="166">#FF0000</tspan><tspan font-size="37" x="374.605" y="122">Yellow</tspan><tspan font-size="37" x="374.605" y="166">#FFFF00</tspan><tspan font-size="37" x="749.21" y="122">Green</tspan><tspan font-size="37" x="749.21" y="166">#00FF00</tspan><tspan font-size="37" x="1123.82" y="122">Cyan</tspan><tspan font-size="37" x="1123.82" y="166">#00FFFF</tspan><tspan font-size="37" x="1498.42" y="122">Blue</tspan><tspan font-size="37" x="1498.42" y="166">#0000FF</tspan><tspan font-size="37" x="1873.03" y="122">Magenta</tspan><tspan font-size="37" x="1873.03" y="166">#FF00FF</tspan><tspan font-size="37" x="0" y="243">Dark red</tspan><tspan font-size="37" x="0" y="287">#C00000</tspan><tspan font-size="37" x="374.605" y="243">Dark yellow</tspan><tspan font-size="37" x="374.605" y="287">#C0C000</tspan><tspan font-size="37" x="749.21" y="243">Dark green</tspan><tspan font-size="37" x="749.21" y="287">#00C000</tspan><tspan font-size="37" x="1123.82" y="243">Dark cyan</tspan><tspan font-size="37" x="1123.82" y="287">#00C0C0</tspan><tspan font-size="37" x="1498.42" y="243">Dark blue</tspan><tspan font-size="37" x="1498.42" y="287">#0000C0</tspan><tspan font-size="37" x="1873.03" y="243">Dark magenta</tspan><tspan font-size="37" x="1873.03" y="287">#C000C0</tspan><tspan fill="#FFFFFF" font-size="37" x="0" y="364">Black</tspan><tspan fill="#FFFFFF" font-size="37" x="0" y="408">#000000</tspan><tspan font-size="37" x="1123.82" y="364">White</tspan><tspan font-size="37" x="1123.82" y="408">#FFFFFF</tspan></text></g></svg>