<svg width="2635" height="591" xmlns="http://www.w3.org/2000/svg" xmlns:xlink="http://www.w3.org/1999/xlink" xml:space="preserve" overflow="hidden"><defs><clipPath id="clip0"><rect x="298" y="1312" width="2635" height="591"/></clipPath></defs><g clip-path="url(#clip0)" transform="translate(-298 -1312)"><rect x="298.5" y="1312.5" width="2634" height="590" stroke="#000000" stroke-width="1.14583" stroke-miterlimit="8" fill="#FFFFFF"/><rect x="930.5" y="1543.5" width="64.9999" height="65" stroke="#000000" stroke-width="1.14583" stroke-miterlimit="8" fill="#C0FFFF"/><rect x="1060.5" y="1543.5" width="65" height="65" stroke="#000000" stroke-width="1.14583" stroke-miterlimit="8" fill="#FFFFFF"/><rect x="995.5" y="1543.5" width="65" height="65" stroke="#000000" stroke-width="1.14583" stroke-miterlimit="8" fill="#C0FFFF"/><rect x="800.5" y="1478.5" width="65" height="65" stroke="#000000" stroke-width="1.14583" stroke-miterlimit="8" fill="#00FF00"/><rect x="930.5" y="1478.5" width="64.9999" height="65" stroke="#000000" stroke-width="1.14583" stroke-miterlimit="8" fill="#00FF00"/><rect x="865.5" y="1478.5" width="64.9999" height="65" stroke="#000000" stroke-width="1.14583" stroke-miterlimit="8" fill="#00FF00"/><rect x="367.5" y="1413.5" width="65" height="65" stroke="#000000" stroke-width="1.14583" stroke-miterlimit="8" fill="#00FF00"/><rect x="432.5" y="1413.5" width="65" height="65" stroke="#000000" stroke-width="1.14583" stroke-miterlimit="8" fill="#FF00FF"/><rect x="497.5" y="1413.5" width="65" height="65" stroke="#000000" stroke-width="1.14583" stroke-miterlimit="8" fill="#FF00FF"/><rect x="562.5" y="1413.5" width="65" height="65" stroke="#000000" stroke-width="1.14583" stroke-miterlimit="8" fill="#FF00FF"/><rect x="627.5" y="1413.5" width="65.0003" height="65" stroke="#000000" stroke-width="1.14583" stroke-miterlimit="8" fill="#FFFFFF"/><rect x="367.5" y="1478.5" width="65" height="65" stroke="#000000" stroke-width="1.14583" stroke-miterlimit="8" fill="#00FF00"/><rect x="432.5" y="1478.5" width="65" height="65" stroke="#000000" stroke-width="1.14583" stroke-miterlimit="8" fill="#00FF00"/><rect x="562.5" y="1478.5" width="65" height="65" stroke="#000000" stroke-width="1.14583" stroke-miterlimit="8" fill="#FF00FF"/><path d="M586.02 1505.03 590.049 1505.03 594.818 1512 599.497 1505.03 603.382 1505.03 596.571 1514.13 603.671 1523.17 599.497 1523.17 594.601 1516.25 589.76 1523.17 585.695 1523.17 592.722 1514.06Z" stroke="#000000" stroke-width="3" stroke-linejoin="round" stroke-miterlimit="10" fill="#FFFFFF" fill-rule="evenodd"/><text fill="#000000" fill-opacity="0" font-family="Arial,Arial_MSFontService,sans-serif" font-size="18.1387" x="585.695" y="1520.9">x</text><rect x="627.5" y="1478.5" width="65.0003" height="65" stroke="#000000" stroke-width="1.14583" stroke-miterlimit="8" fill="#FFFFFF"/><rect x="367.5" y="1543.5" width="65" height="65" stroke="#000000" stroke-width="1.14583" stroke-miterlimit="8" fill="#FFFFFF"/><rect x="432.5" y="1543.5" width="65" height="65" stroke="#000000" stroke-width="1.14583" stroke-miterlimit="8" fill="#FFFFFF"/><rect x="497.5" y="1543.5" width="65" height="65" stroke="#000000" stroke-width="1.14583" stroke-miterlimit="8" fill="#C0FFFF"/><rect x="562.5" y="1543.5" width="65" height="65" stroke="#000000" stroke-width="1.14583" stroke-miterlimit="8" fill="#C0FFFF"/><rect x="627.5" y="1543.5" width="65.0003" height="65" stroke="#000000" stroke-width="1.14583" stroke-miterlimit="8" fill="#FFFFFF"/><rect x="367.5" y="1608.5" width="65" height="65" stroke="#000000" stroke-width="1.14583" stroke-miterlimit="8" fill="#FFFFFF"/><rect x="432.5" y="1608.5" width="65" height="65" stroke="#000000" stroke-width="1.14583" stroke-miterlimit="8" fill="#FFFFFF"/><rect x="497.5" y="1608.5" width="65" height="65" stroke="#000000" stroke-width="1.14583" stroke-miterlimit="8" fill="#FFFFFF"/><rect x="562.5" y="1608.5" width="65" height="65" stroke="#000000" stroke-width="1.14583" stroke-miterlimit="8" fill="#C0FFFF"/><rect x="627.5" y="1608.5" width="65.0003" height="65" stroke="#000000" stroke-width="1.14583" stroke-miterlimit="8" fill="#C0FFFF"/><rect x="367.5" y="1667.5" width="65" height="63.9999" stroke="#000000" stroke-width="1.14583" stroke-miterlimit="8" fill="#FFFFFF"/><rect x="432.5" y="1667.5" width="65" height="63.9999" stroke="#000000" stroke-width="1.14583" stroke-miterlimit="8" fill="#FFFFFF"/><rect x="497.5" y="1667.5" width="65" height="63.9999" stroke="#000000" stroke-width="1.14583" stroke-miterlimit="8" fill="#FFFFFF"/><rect x="562.5" y="1667.5" width="65" height="63.9999" stroke="#000000" stroke-width="1.14583" stroke-miterlimit="8" fill="#FFFFFF"/><rect x="627.5" y="1667.5" width="65.0003" height="63.9999" stroke="#000000" stroke-width="1.14583" stroke-miterlimit="8" fill="#FFFFFF"/><rect x="497.5" y="1478.5" width="65" height="65" stroke="#000000" stroke-width="1.14583" stroke-miterlimit="8" fill="#00FF00"/><path d="M369.431 1768.61 387.192 1768.61 387.192 1805.61 369.431 1805.61Z" fill="#FFFFFF" fill-rule="evenodd"/><path d="M387.192 1768.61 511.515 1768.61 511.515 1805.61 387.192 1805.61Z" fill="#FFFFFF" fill-rule="evenodd"/><path d="M511.515 1768.61 600.317 1768.61 600.317 1805.61 511.515 1805.61Z" fill="#FFFFFF" fill-rule="evenodd"/><text font-family="Consolas,Consolas_MSFontService,sans-serif" font-weight="700" font-size="32" transform="matrix(1 0 0 1 369.431 1798)">x<tspan font-weight="400" font-size="32" x="17.7604" y="0">: Next </tspan><tspan font-weight="400" font-size="32" x="142.083" y="0">Codel</tspan><tspan font-weight="400" font-size="32" x="-2.55911" y="-422">Example 1:</tspan></text><path d="M806.002 1766.36 859.283 1766.36 859.283 1803.36 806.002 1803.36Z" fill="#FFFFFF" fill-rule="evenodd"/><path d="M859.283 1766.36 948.086 1766.36 948.086 1803.36 859.283 1803.36Z" fill="#FFFFFF" fill-rule="evenodd"/><path d="M948.086 1766.36 1036.89 1766.36 1036.89 1803.36 948.086 1803.36Z" fill="#FFFFFF" fill-rule="evenodd"/><path d="M806.002 1805.36 877.044 1805.36 877.044 1842.36 806.002 1842.36Z" fill="#FF0000" fill-rule="evenodd"/><path d="M877.044 1805.36 894.804 1805.36 894.804 1842.36 877.044 1842.36Z" fill="#FF0000" fill-rule="evenodd"/><path d="M894.804 1805.36 983.606 1805.36 983.606 1842.36 894.804 1842.36Z" fill="#FF0000" fill-rule="evenodd"/><path d="M983.606 1805.36 1001.37 1805.36 1001.37 1842.36 983.606 1842.36Z" fill="#FF0000" fill-rule="evenodd"/><path d="M1001.37 1805.36 1072.41 1805.36 1072.41 1842.36 1001.37 1842.36Z" fill="#FF0000" fill-rule="evenodd"/><path d="M1072.41 1805.36 1090.17 1805.36 1090.17 1842.36 1072.41 1842.36Z" fill="#FF0000" fill-rule="evenodd"/><text font-family="Consolas,Consolas_MSFontService,sans-serif" font-weight="400" font-size="32" transform="matrix(1 0 0 1 806.002 1795)">x: <tspan font-size="32" x="53.2813" y="0">Next </tspan><tspan font-size="32" x="142.083" y="0">Codel</tspan><tspan font-size="32" x="0" y="39">Next</tspan><tspan font-size="32" x="71.0417" y="39"> </tspan><tspan font-size="32" x="88.8021" y="39">codel</tspan><tspan font-size="32" x="177.604" y="39"> </tspan><tspan font-size="32" x="195.365" y="39">Bloc</tspan><tspan font-size="32" x="266.406" y="39">k</tspan></text><rect x="800.5" y="1413.5" width="65" height="65" stroke="#000000" stroke-width="1.14583" stroke-miterlimit="8" fill="#00FF00"/><rect x="930" y="1413" width="65.0003" height="65" stroke="#FF0000" stroke-width="10.3125" stroke-miterlimit="8" fill="#FF00FF"/><rect x="865" y="1413" width="65" height="65" stroke="#FF0000" stroke-width="10.3125" stroke-miterlimit="8" fill="#FF00FF"/><rect x="1060.5" y="1413.5" width="65" height="65" stroke="#000000" stroke-width="1.14583" stroke-miterlimit="8" fill="#FFFFFF"/><rect x="995" y="1413" width="64.9999" height="65" stroke="#FF0000" stroke-width="10.3125" stroke-miterlimit="8" fill="#FF00FF"/><rect x="1060.5" y="1478.5" width="65" height="65" stroke="#000000" stroke-width="1.14583" stroke-miterlimit="8" fill="#FFFFFF"/><rect x="995" y="1478" width="64.9999" height="65" stroke="#FF0000" stroke-width="10.3125" stroke-miterlimit="8" fill="#FF00FF"/><path d="M1019.17 1505.03 1023.2 1505.03 1027.97 1512 1032.65 1505.03 1036.54 1505.03 1029.73 1514.13 1036.83 1523.17 1032.65 1523.17 1027.76 1516.25 1022.91 1523.17 1018.85 1523.17 1025.88 1514.06Z" stroke="#000000" stroke-width="3" stroke-linejoin="round" stroke-miterlimit="10" fill="#FFFFFF" fill-rule="evenodd"/><text fill="#000000" fill-opacity="0" font-family="Arial,Arial_MSFontService,sans-serif" font-size="18.1387" x="1018.85" y="1520.9">x</text><rect x="800.5" y="1543.5" width="65" height="65" stroke="#000000" stroke-width="1.14583" stroke-miterlimit="8" fill="#FFFFFF"/><rect x="865.5" y="1543.5" width="64.9999" height="65" stroke="#000000" stroke-width="1.14583" stroke-miterlimit="8" fill="#FFFFFF"/><rect x="800.5" y="1608.5" width="65" height="65" stroke="#000000" stroke-width="1.14583" stroke-miterlimit="8" fill="#FFFFFF"/><rect x="865.5" y="1608.5" width="64.9999" height="65" stroke="#000000" stroke-width="1.14583" stroke-miterlimit="8" fill="#FFFFFF"/><rect x="930.5" y="1608.5" width="64.9999" height="65" stroke="#000000" stroke-width="1.14583" stroke-miterlimit="8" fill="#FFFFFF"/><rect x="995.5" y="1608.5" width="65" height="65" stroke="#000000" stroke-width="1.14583" stroke-miterlimit="8" fill="#C0FFFF"/><rect x="1060.5" y="1608.5" width="65" height="65" stroke="#000000" stroke-width="1.14583" stroke-miterlimit="8" fill="#C0FFFF"/><rect x="800.5" y="1667.5" width="65" height="63.9999" stroke="#000000" stroke-width="1.14583" stroke-miterlimit="8" fill="#FFFFFF"/><rect x="865.5" y="1667.5" width="64.9999" height="63.9999" stroke="#000000" stroke-width="1.14583" stroke-miterlimit="8" fill="#FFFFFF"/><rect x="930.5" y="1667.5" width="64.9999" height="63.9999" stroke="#000000" stroke-width="1.14583" stroke-miterlimit="8" fill="#FFFFFF"/><rect x="995.5" y="1667.5" width="65" height="63.9999" stroke="#000000" stroke-width="1.14583" stroke-miterlimit="8" fill="#FFFFFF"/><rect x="1060.5" y="1667.5" width="65" height="63.9999" stroke="#000000" stroke-width="1.14583" stroke-miterlimit="8" fill="#FFFFFF"/><rect x="1800.5" y="1543.5" width="65" height="65" stroke="#000000" stroke-width="1.14583" stroke-miterlimit="8" fill="#C0FFFF"/><rect x="1930.5" y="1543.5" width="65" height="65" stroke="#000000" stroke-width="1.14583" stroke-miterlimit="8" fill="#FF00FF"/><rect x="1865.5" y="1543.5" width="65" height="65" stroke="#000000" stroke-width="1.14583" stroke-miterlimit="8" fill="#C0FFFF"/><rect x="1671.5" y="1478.5" width="63.9999" height="65" stroke="#000000" stroke-width="1.14583" stroke-miterlimit="8" fill="#00FF00"/><rect x="1800.5" y="1478.5" width="65" height="65" stroke="#000000" stroke-width="1.14583" stroke-miterlimit="8" fill="#00FF00"/><rect x="1735.5" y="1478.5" width="65" height="65" stroke="#000000" stroke-width="1.14583" stroke-miterlimit="8" fill="#00FF00"/><rect x="1237.5" y="1413.5" width="65" height="65" stroke="#000000" stroke-width="1.14583" stroke-miterlimit="8" fill="#00FF00"/><rect x="1302.5" y="1413.5" width="65" height="65" stroke="#000000" stroke-width="1.14583" stroke-miterlimit="8" fill="#FF00FF"/><rect x="1367.5" y="1413.5" width="65" height="65" stroke="#000000" stroke-width="1.14583" stroke-miterlimit="8" fill="#FF00FF"/><rect x="1432.5" y="1413.5" width="65" height="65" stroke="#000000" stroke-width="1.14583" stroke-miterlimit="8" fill="#FF00FF"/><rect x="1497.5" y="1413.5" width="65" height="65" stroke="#000000" stroke-width="1.14583" stroke-miterlimit="8" fill="#FFFFFF"/><rect x="1237.5" y="1478.5" width="65" height="65" stroke="#000000" stroke-width="1.14583" stroke-miterlimit="8" fill="#00FF00"/><rect x="1302.5" y="1478.5" width="65" height="65" stroke="#000000" stroke-width="1.14583" stroke-miterlimit="8" fill="#00FF00"/><rect x="1432.5" y="1478.5" width="65" height="65" stroke="#000000" stroke-width="1.14583" stroke-miterlimit="8" fill="#FF00FF"/><path d="M1456.29 1505.03 1460.32 1505.03 1465.09 1512 1469.76 1505.03 1473.65 1505.03 1466.84 1514.13 1473.94 1523.17 1469.76 1523.17 1464.87 1516.25 1460.03 1523.17 1455.96 1523.17 1462.99 1514.06Z" stroke="#000000" stroke-width="3" stroke-linejoin="round" stroke-miterlimit="10" fill="#FFFFFF" fill-rule="evenodd"/><text fill="#000000" fill-opacity="0" font-family="Arial,Arial_MSFontService,sans-serif" font-size="18.1387" x="1455.96" y="1520.9">x</text><rect x="1497.5" y="1478.5" width="65" height="65" stroke="#000000" stroke-width="1.14583" stroke-miterlimit="8" fill="#FFFFFF"/><rect x="1237.5" y="1543.5" width="65" height="65" stroke="#000000" stroke-width="1.14583" stroke-miterlimit="8" fill="#FFFFFF"/><rect x="1302.5" y="1543.5" width="65" height="65" stroke="#000000" stroke-width="1.14583" stroke-miterlimit="8" fill="#FFFFFF"/><rect x="1367.5" y="1543.5" width="65" height="65" stroke="#000000" stroke-width="1.14583" stroke-miterlimit="8" fill="#C0FFFF"/><rect x="1432.5" y="1543.5" width="65" height="65" stroke="#000000" stroke-width="1.14583" stroke-miterlimit="8" fill="#C0FFFF"/><rect x="1497.5" y="1543.5" width="65" height="65" stroke="#000000" stroke-width="1.14583" stroke-miterlimit="8" fill="#FF00FF"/><rect x="1237.5" y="1608.5" width="65" height="65" stroke="#000000" stroke-width="1.14583" stroke-miterlimit="8" fill="#FFFFFF"/><rect x="1302.5" y="1608.5" width="65" height="65" stroke="#000000" stroke-width="1.14583" stroke-miterlimit="8" fill="#FFFFFF"/><rect x="1367.5" y="1608.5" width="65" height="65" stroke="#000000" stroke-width="1.14583" stroke-miterlimit="8" fill="#FFFFFF"/><rect x="1432.5" y="1608.5" width="65" height="65" stroke="#000000" stroke-width="1.14583" stroke-miterlimit="8" fill="#C0FFFF"/><rect x="1497.5" y="1608.5" width="65" height="65" stroke="#000000" stroke-width="1.14583" stroke-miterlimit="8" fill="#C0FFFF"/><rect x="1237.5" y="1667.5" width="65" height="63.9999" stroke="#000000" stroke-width="1.14583" stroke-miterlimit="8" fill="#FFFFFF"/><rect x="1302.5" y="1667.5" width="65" height="63.9999" stroke="#000000" stroke-width="1.14583" stroke-miterlimit="8" fill="#FFFFFF"/><rect x="1367.5" y="1667.5" width="65" height="63.9999" stroke="#000000" stroke-width="1.14583" stroke-miterlimit="8" fill="#FFFFFF"/><rect x="1432.5" y="1667.5" width="65" height="63.9999" stroke="#000000" stroke-width="1.14583" stroke-miterlimit="8" fill="#FFFFFF"/><rect x="1497.5" y="1667.5" width="65" height="63.9999" stroke="#000000" stroke-width="1.14583" stroke-miterlimit="8" fill="#FFFFFF"/><rect x="1367.5" y="1478.5" width="65" height="65" stroke="#000000" stroke-width="1.14583" stroke-miterlimit="8" fill="#00FF00"/><path d="M1239.7 1768.61 1257.46 1768.61 1257.46 1805.61 1239.7 1805.61Z" fill="#FFFFFF" fill-rule="evenodd"/><path d="M1257.46 1768.61 1381.78 1768.61 1381.78 1805.61 1257.46 1805.61Z" fill="#FFFFFF" fill-rule="evenodd"/><path d="M1381.78 1768.61 1470.58 1768.61 1470.58 1805.61 1381.78 1805.61Z" fill="#FFFFFF" fill-rule="evenodd"/><text font-family="Consolas,Consolas_MSFontService,sans-serif" font-weight="700" font-size="32" transform="matrix(1 0 0 1 1239.7 1798)">x<tspan font-weight="400" font-size="32" x="17.7604" y="0">: Next </tspan><tspan font-weight="400" font-size="32" x="142.083" y="0">Codel</tspan><tspan font-weight="400" font-size="32" x="-2.55908" y="-422">Example 2</tspan><tspan font-weight="400" font-size="32" x="157.285" y="-422">:</tspan></text><path d="M1676.27 1766.36 1729.55 1766.36 1729.55 1803.36 1676.27 1803.36Z" fill="#FFFFFF" fill-rule="evenodd"/><path d="M1729.55 1766.36 1818.35 1766.36 1818.35 1803.36 1729.55 1803.36Z" fill="#FFFFFF" fill-rule="evenodd"/><path d="M1818.35 1766.36 1907.16 1766.36 1907.16 1803.36 1818.35 1803.36Z" fill="#FFFFFF" fill-rule="evenodd"/><path d="M1676.27 1805.36 1747.31 1805.36 1747.31 1842.36 1676.27 1842.36Z" fill="#FF0000" fill-rule="evenodd"/><path d="M1747.31 1805.36 1765.07 1805.36 1765.07 1842.36 1747.31 1842.36Z" fill="#FF0000" fill-rule="evenodd"/><path d="M1765.07 1805.36 1853.87 1805.36 1853.87 1842.36 1765.07 1842.36Z" fill="#FF0000" fill-rule="evenodd"/><path d="M1853.87 1805.36 1871.63 1805.36 1871.63 1842.36 1853.87 1842.36Z" fill="#FF0000" fill-rule="evenodd"/><path d="M1871.63 1805.36 1942.68 1805.36 1942.68 1842.36 1871.63 1842.36Z" fill="#FF0000" fill-rule="evenodd"/><path d="M1942.68 1805.36 1960.44 1805.36 1960.44 1842.36 1942.68 1842.36Z" fill="#FF0000" fill-rule="evenodd"/><text font-family="Consolas,Consolas_MSFontService,sans-serif" font-weight="400" font-size="32" transform="matrix(1 0 0 1 1676.27 1795)">x: <tspan font-size="32" x="53.2813" y="0">Next </tspan><tspan font-size="32" x="142.083" y="0">Codel</tspan><tspan font-size="32" x="0" y="39">Next</tspan><tspan font-size="32" x="71.0416" y="39"> </tspan><tspan font-size="32" x="88.802" y="39">codel</tspan><tspan font-size="32" x="177.604" y="39"> </tspan><tspan font-size="32" x="195.365" y="39">Bloc</tspan><tspan font-size="32" x="266.406" y="39">k</tspan></text><rect x="1671.5" y="1413.5" width="63.9999" height="65" stroke="#000000" stroke-width="1.14583" stroke-miterlimit="8" fill="#00FF00"/><rect x="1800" y="1413" width="65" height="65" stroke="#FF0000" stroke-width="10.3125" stroke-miterlimit="8" fill="#FF00FF"/><rect x="1735" y="1413" width="65" height="65" stroke="#FF0000" stroke-width="10.3125" stroke-miterlimit="8" fill="#FF00FF"/><rect x="1930.5" y="1413.5" width="65" height="65" stroke="#000000" stroke-width="1.14583" stroke-miterlimit="8" fill="#FFFFFF"/><rect x="1865" y="1413" width="65.0004" height="65" stroke="#FF0000" stroke-width="10.3125" stroke-miterlimit="8" fill="#FF00FF"/><rect x="1930.5" y="1478.5" width="65" height="65" stroke="#000000" stroke-width="1.14583" stroke-miterlimit="8" fill="#FFFFFF"/><rect x="1865" y="1478" width="65.0004" height="65" stroke="#FF0000" stroke-width="10.3125" stroke-miterlimit="8" fill="#FF00FF"/><path d="M1889.44 1505.03 1893.47 1505.03 1898.24 1512 1902.92 1505.03 1906.8 1505.03 1899.99 1514.13 1907.09 1523.17 1902.92 1523.17 1898.02 1516.25 1893.18 1523.17 1889.12 1523.17 1896.14 1514.06Z" stroke="#000000" stroke-width="3" stroke-linejoin="round" stroke-miterlimit="10" fill="#FFFFFF" fill-rule="evenodd"/><text fill="#000000" fill-opacity="0" font-family="Arial,Arial_MSFontService,sans-serif" font-size="18.1387" x="1889.12" y="1520.9">x</text><rect x="1671.5" y="1543.5" width="63.9999" height="65" stroke="#000000" stroke-width="1.14583" stroke-miterlimit="8" fill="#FFFFFF"/><rect x="1735.5" y="1543.5" width="65" height="65" stroke="#000000" stroke-width="1.14583" stroke-miterlimit="8" fill="#FFFFFF"/><rect x="1671.5" y="1608.5" width="63.9999" height="65" stroke="#000000" stroke-width="1.14583" stroke-miterlimit="8" fill="#FFFFFF"/><rect x="1735.5" y="1608.5" width="65" height="65" stroke="#000000" stroke-width="1.14583" stroke-miterlimit="8" fill="#FFFFFF"/><rect x="1800.5" y="1608.5" width="65" height="65" stroke="#000000" stroke-width="1.14583" stroke-miterlimit="8" fill="#FFFFFF"/><rect x="1865.5" y="1608.5" width="65" height="65" stroke="#000000" stroke-width="1.14583" stroke-miterlimit="8" fill="#C0FFFF"/><rect x="1930.5" y="1608.5" width="65" height="65" stroke="#000000" stroke-width="1.14583" stroke-miterlimit="8" fill="#C0FFFF"/><rect x="1671.5" y="1667.5" width="63.9999" height="63.9999" stroke="#000000" stroke-width="1.14583" stroke-miterlimit="8" fill="#FFFFFF"/><rect x="1735.5" y="1667.5" width="65" height="63.9999" stroke="#000000" stroke-width="1.14583" stroke-miterlimit="8" fill="#FFFFFF"/><rect x="1800.5" y="1667.5" width="65" height="63.9999" stroke="#000000" stroke-width="1.14583" stroke-miterlimit="8" fill="#FFFFFF"/><rect x="1865.5" y="1667.5" width="65" height="63.9999" stroke="#000000" stroke-width="1.14583" stroke-miterlimit="8" fill="#FFFFFF"/><rect x="1930.5" y="1667.5" width="65" height="63.9999" stroke="#000000" stroke-width="1.14583" stroke-miterlimit="8" fill="#FFFFFF"/><rect x="2667.5" y="1543.5" width="65" height="65" stroke="#000000" stroke-width="1.14583" stroke-miterlimit="8" fill="#C0FFFF"/><rect x="2797.5" y="1543.5" width="65" height="65" stroke="#000000" stroke-width="1.14583" stroke-miterlimit="8" fill="#FF00FF"/><rect x="2732.5" y="1543.5" width="65" height="65" stroke="#000000" stroke-width="1.14583" stroke-miterlimit="8" fill="#C0FFFF"/><rect x="2537.5" y="1478.5" width="65" height="65" stroke="#000000" stroke-width="1.14583" stroke-miterlimit="8" fill="#00FF00"/><rect x="2667.5" y="1478.5" width="65" height="65" stroke="#000000" stroke-width="1.14583" stroke-miterlimit="8" fill="#00FF00"/><rect x="2602.5" y="1478.5" width="65" height="65" stroke="#000000" stroke-width="1.14583" stroke-miterlimit="8" fill="#00FF00"/><rect x="2104.5" y="1413.5" width="65" height="65" stroke="#000000" stroke-width="1.14583" stroke-miterlimit="8" fill="#00FF00"/><rect x="2169.5" y="1413.5" width="65" height="65" stroke="#000000" stroke-width="1.14583" stroke-miterlimit="8" fill="#0000FF"/><rect x="2234.5" y="1413.5" width="65" height="65" stroke="#000000" stroke-width="1.14583" stroke-miterlimit="8" fill="#0000FF"/><rect x="2299.5" y="1413.5" width="65.0002" height="65" stroke="#000000" stroke-width="1.14583" stroke-miterlimit="8" fill="#0000FF"/><rect x="2364.5" y="1413.5" width="64" height="65" stroke="#000000" stroke-width="1.14583" stroke-miterlimit="8" fill="#FFFFFF"/><rect x="2104.5" y="1478.5" width="65" height="65" stroke="#000000" stroke-width="1.14583" stroke-miterlimit="8" fill="#00FF00"/><rect x="2169.5" y="1478.5" width="65" height="65" stroke="#000000" stroke-width="1.14583" stroke-miterlimit="8" fill="#00FF00"/><rect x="2299.5" y="1478.5" width="65.0002" height="65" stroke="#000000" stroke-width="1.14583" stroke-miterlimit="8" fill="#FF00FF"/><path d="M2322.59 1505.03 2326.61 1505.03 2331.38 1512 2336.06 1505.03 2339.95 1505.03 2333.14 1514.14 2340.24 1523.17 2336.06 1523.17 2331.17 1516.25 2326.33 1523.17 2322.26 1523.17 2329.29 1514.06Z" stroke="#000000" stroke-width="3" stroke-linejoin="round" stroke-miterlimit="10" fill="#FFFFFF" fill-rule="evenodd"/><text fill="#000000" fill-opacity="0" font-family="Arial,Arial_MSFontService,sans-serif" font-size="18.1387" x="2322.26" y="1520.9">x</text><rect x="2364.5" y="1478.5" width="64" height="65" stroke="#000000" stroke-width="1.14583" stroke-miterlimit="8" fill="#FFFFFF"/><rect x="2104.5" y="1543.5" width="65" height="65" stroke="#000000" stroke-width="1.14583" stroke-miterlimit="8" fill="#FFFFFF"/><rect x="2169.5" y="1543.5" width="65" height="65" stroke="#000000" stroke-width="1.14583" stroke-miterlimit="8" fill="#FFFFFF"/><rect x="2234.5" y="1543.5" width="65" height="65" stroke="#000000" stroke-width="1.14583" stroke-miterlimit="8" fill="#C0FFFF"/><rect x="2299.5" y="1543.5" width="65.0002" height="65" stroke="#000000" stroke-width="1.14583" stroke-miterlimit="8" fill="#C0FFFF"/><rect x="2364.5" y="1543.5" width="64" height="65" stroke="#000000" stroke-width="1.14583" stroke-miterlimit="8" fill="#FF00FF"/><rect x="2104.5" y="1608.5" width="65" height="65" stroke="#000000" stroke-width="1.14583" stroke-miterlimit="8" fill="#FFFFFF"/><rect x="2169.5" y="1608.5" width="65" height="65" stroke="#000000" stroke-width="1.14583" stroke-miterlimit="8" fill="#FFFFFF"/><rect x="2234.5" y="1608.5" width="65" height="65" stroke="#000000" stroke-width="1.14583" stroke-miterlimit="8" fill="#FFFFFF"/><rect x="2299.5" y="1608.5" width="65.0002" height="65" stroke="#000000" stroke-width="1.14583" stroke-miterlimit="8" fill="#C0FFFF"/><rect x="2364.5" y="1608.5" width="64" height="65" stroke="#000000" stroke-width="1.14583" stroke-miterlimit="8" fill="#C0FFFF"/><rect x="2104.5" y="1667.5" width="65" height="63.9999" stroke="#000000" stroke-width="1.14583" stroke-miterlimit="8" fill="#FFFFFF"/><rect x="2169.5" y="1667.5" width="65" height="63.9999" stroke="#000000" stroke-width="1.14583" stroke-miterlimit="8" fill="#FFFFFF"/><rect x="2234.5" y="1667.5" width="65" height="63.9999" stroke="#000000" stroke-width="1.14583" stroke-miterlimit="8" fill="#FFFFFF"/><rect x="2299.5" y="1667.5" width="65.0002" height="63.9999" stroke="#000000" stroke-width="1.14583" stroke-miterlimit="8" fill="#FFFFFF"/><rect x="2364.5" y="1667.5" width="64" height="63.9999" stroke="#000000" stroke-width="1.14583" stroke-miterlimit="8" fill="#FFFFFF"/><rect x="2234.5" y="1478.5" width="65" height="65" stroke="#000000" stroke-width="1.14583" stroke-miterlimit="8" fill="#00FF00"/><path d="M2106 1768.61 2123.76 1768.61 2123.76 1805.61 2106 1805.61Z" fill="#FFFFFF" fill-rule="evenodd"/><path d="M2123.76 1768.61 2248.08 1768.61 2248.08 1805.61 2123.76 1805.61Z" fill="#FFFFFF" fill-rule="evenodd"/><path d="M2248.08 1768.61 2336.88 1768.61 2336.88 1805.61 2248.08 1805.61Z" fill="#FFFFFF" fill-rule="evenodd"/><text font-family="Consolas,Consolas_MSFontService,sans-serif" font-weight="700" font-size="32" transform="matrix(1 0 0 1 2106 1798)">x<tspan font-weight="400" font-size="32" x="17.7605" y="0">: Next </tspan><tspan font-weight="400" font-size="32" x="142.084" y="0">Codel</tspan></text><rect x="2537.5" y="1413.5" width="65" height="65" stroke="#000000" stroke-width="1.14583" stroke-miterlimit="8" fill="#00FF00"/><rect x="2667.5" y="1413.5" width="65" height="65" stroke="#000000" stroke-width="1.14583" stroke-miterlimit="8" fill="#0000FF"/><rect x="2602.5" y="1413.5" width="65" height="65" stroke="#000000" stroke-width="1.14583" stroke-miterlimit="8" fill="#0000FF"/><rect x="2797.5" y="1413.5" width="65" height="65" stroke="#000000" stroke-width="1.14583" stroke-miterlimit="8" fill="#FFFFFF"/><rect x="2732.5" y="1413.5" width="65" height="65" stroke="#000000" stroke-width="1.14583" stroke-miterlimit="8" fill="#0000FF"/><rect x="2797.5" y="1478.5" width="65" height="65" stroke="#000000" stroke-width="1.14583" stroke-miterlimit="8" fill="#FFFFFF"/><rect x="2732" y="1478" width="65" height="65" stroke="#FF0000" stroke-width="10.3125" stroke-miterlimit="8" fill="#FF00FF"/><path d="M2755.74 1505.03 2759.77 1505.03 2764.54 1512 2769.22 1505.03 2773.1 1505.03 2766.29 1514.14 2773.39 1523.17 2769.22 1523.17 2764.32 1516.25 2759.48 1523.17 2755.42 1523.17 2762.44 1514.06Z" stroke="#000000" stroke-width="3" stroke-linejoin="round" stroke-miterlimit="10" fill="#FFFFFF" fill-rule="evenodd"/><text fill="#000000" fill-opacity="0" font-family="Arial,Arial_MSFontService,sans-serif" font-size="18.1387" x="2755.42" y="1520.9">x</text><rect x="2537.5" y="1543.5" width="65" height="65" stroke="#000000" stroke-width="1.14583" stroke-miterlimit="8" fill="#FFFFFF"/><rect x="2602.5" y="1543.5" width="65" height="65" stroke="#000000" stroke-width="1.14583" stroke-miterlimit="8" fill="#FFFFFF"/><rect x="2537.5" y="1608.5" width="65" height="65" stroke="#000000" stroke-width="1.14583" stroke-miterlimit="8" fill="#FFFFFF"/><rect x="2602.5" y="1608.5" width="65" height="65" stroke="#000000" stroke-width="1.14583" stroke-miterlimit="8" fill="#FFFFFF"/><rect x="2667.5" y="1608.5" width="65" height="65" stroke="#000000" stroke-width="1.14583" stroke-miterlimit="8" fill="#FFFFFF"/><rect x="2732.5" y="1608.5" width="65" height="65" stroke="#000000" stroke-width="1.14583" stroke-miterlimit="8" fill="#C0FFFF"/><rect x="2797.5" y="1608.5" width="65" height="65" stroke="#000000" stroke-width="1.14583" stroke-miterlimit="8" fill="#C0FFFF"/><rect x="2537.5" y="1667.5" width="65" height="63.9999" stroke="#000000" stroke-width="1.14583" stroke-miterlimit="8" fill="#FFFFFF"/><rect x="2602.5" y="1667.5" width="65" height="63.9999" stroke="#000000" stroke-width="1.14583" stroke-miterlimit="8" fill="#FFFFFF"/><rect x="2667.5" y="1667.5" width="65" height="63.9999" stroke="#000000" stroke-width="1.14583" stroke-miterlimit="8" fill="#FFFFFF"/><rect x="2732.5" y="1667.5" width="65" height="63.9999" stroke="#000000" stroke-width="1.14583" stroke-miterlimit="8" fill="#FFFFFF"/><rect x="2797.5" y="1667.5" width="65" height="63.9999" stroke="#000000" stroke-width="1.14583" stroke-miterlimit="8" fill="#FFFFFF"/><text font-family="Consolas,Consolas_MSFontService,sans-serif" font-weight="400" font-size="32" transform="matrix(1 0 0 1 2106 1376)">Example <tspan font-size="32" x="142.084" y="0">3:</tspan></text></g></svg>