<svg width="2296" height="751" xmlns="http://www.w3.org/2000/svg" xmlns:xlink="http://www.w3.org/1999/xlink" xml:space="preserve" overflow="hidden"><defs><clipPath id="clip0"><rect x="243" y="1251" width="2296" height="751"/></clipPath></defs><g clip-path="url(#clip0)" transform="translate(-243 -1251)"><rect x="243.5" y="1251.5" width="2245" height="750" stroke="#000000" stroke-width="1.14583" stroke-miterlimit="8" fill="#FFFFFF"/><rect x="302.5" y="1488.5" width="65" height="65" stroke="#000000" stroke-width="1.14583" stroke-miterlimit="8" fill="#00FF00"/><rect x="367.5" y="1488.5" width="65" height="65" stroke="#000000" stroke-width="1.14583" stroke-miterlimit="8" fill="#FF00FF"/><rect x="432.5" y="1488.5" width="65" height="65" stroke="#000000" stroke-width="1.14583" stroke-miterlimit="8" fill="#FF00FF"/><rect x="497.5" y="1488.5" width="65" height="65" stroke="#000000" stroke-width="1.14583" stroke-miterlimit="8" fill="#FF00FF"/><rect x="562.5" y="1488.5" width="65" height="65" stroke="#000000" stroke-width="1.14583" stroke-miterlimit="8" fill="#FFFFFF"/><rect x="302.5" y="1553.5" width="65" height="65" stroke="#000000" stroke-width="1.14583" stroke-miterlimit="8" fill="#00FF00"/><rect x="367.5" y="1553.5" width="65" height="65" stroke="#000000" stroke-width="1.14583" stroke-miterlimit="8" fill="#00FF00"/><rect x="497.5" y="1553.5" width="65" height="65" stroke="#000000" stroke-width="1.14583" stroke-miterlimit="8" fill="#FF00FF"/><path d="M521.409 1580.5 525.437 1580.5 530.207 1587.47 534.886 1580.5 538.77 1580.5 531.959 1589.6 539.059 1598.64 534.886 1598.64 529.99 1591.72 525.148 1598.64 521.083 1598.64 528.111 1589.53Z" stroke="#000000" stroke-width="3" stroke-linejoin="round" stroke-miterlimit="10" fill="#FFFFFF" fill-rule="evenodd"/><text fill="#000000" fill-opacity="0" font-family="Arial,Arial_MSFontService,sans-serif" font-size="18.1387" x="521.083" y="1596.37">x</text><rect x="562.5" y="1553.5" width="65" height="65" stroke="#000000" stroke-width="1.14583" stroke-miterlimit="8" fill="#FFFFFF"/><rect x="302.5" y="1618.5" width="65" height="65" stroke="#000000" stroke-width="1.14583" stroke-miterlimit="8" fill="#FFFFFF"/><rect x="367.5" y="1618.5" width="65" height="65" stroke="#000000" stroke-width="1.14583" stroke-miterlimit="8" fill="#FFFFFF"/><rect x="432.5" y="1618.5" width="65" height="65" stroke="#000000" stroke-width="1.14583" stroke-miterlimit="8" fill="#C0FFFF"/><rect x="497.5" y="1618.5" width="65" height="65" stroke="#000000" stroke-width="1.14583" stroke-miterlimit="8" fill="#C0FFFF"/><rect x="562.5" y="1618.5" width="65" height="65" stroke="#000000" stroke-width="1.14583" stroke-miterlimit="8" fill="#FFFFFF"/><rect x="302.5" y="1683.5" width="65" height="65.0004" stroke="#000000" stroke-width="1.14583" stroke-miterlimit="8" fill="#FFFFFF"/><rect x="367.5" y="1683.5" width="65" height="65.0004" stroke="#000000" stroke-width="1.14583" stroke-miterlimit="8" fill="#FFFFFF"/><rect x="432.5" y="1683.5" width="65" height="65.0004" stroke="#000000" stroke-width="1.14583" stroke-miterlimit="8" fill="#FFFFFF"/><rect x="497.5" y="1683.5" width="65" height="65.0004" stroke="#000000" stroke-width="1.14583" stroke-miterlimit="8" fill="#C0FFFF"/><rect x="562.5" y="1683.5" width="65" height="65.0004" stroke="#000000" stroke-width="1.14583" stroke-miterlimit="8" fill="#C0FFFF"/><rect x="302.5" y="1742.5" width="65" height="65" stroke="#000000" stroke-width="1.14583" stroke-miterlimit="8" fill="#FFFFFF"/><rect x="367.5" y="1742.5" width="65" height="65" stroke="#000000" stroke-width="1.14583" stroke-miterlimit="8" fill="#FFFFFF"/><rect x="432.5" y="1742.5" width="65" height="65" stroke="#000000" stroke-width="1.14583" stroke-miterlimit="8" fill="#FFFFFF"/><rect x="497.5" y="1742.5" width="65" height="65" stroke="#000000" stroke-width="1.14583" stroke-miterlimit="8" fill="#FFFFFF"/><rect x="562.5" y="1742.5" width="65" height="65" stroke="#000000" stroke-width="1.14583" stroke-miterlimit="8" fill="#FFFFFF"/><rect x="432.5" y="1553.5" width="65" height="65" stroke="#000000" stroke-width="1.14583" stroke-miterlimit="8" fill="#00FF00"/><path d="M461.577 1571.9 466.602 1571.9 479.971 1585.27 466.602 1598.64 461.577 1598.64 473.158 1587.06 449.963 1587.06 449.963 1583.48 473.158 1583.48Z" stroke="#000000" stroke-width="3" stroke-linejoin="round" stroke-miterlimit="10" fill-rule="evenodd"/><text fill="#000000" fill-opacity="0" font-family="Arial,Arial_MSFontService,sans-serif" font-size="26.7383" x="449.963" y="1595.3"></text><path d="M304.82 1902.75 322.581 1902.75 322.581 1939.75 304.82 1939.75Z" fill="#FFFFFF" fill-rule="evenodd"/><path d="M322.581 1902.75 358.101 1902.75 358.101 1939.75 322.581 1939.75Z" fill="#FFFFFF" fill-rule="evenodd"/><path d="M358.101 1902.75 429.143 1902.75 429.143 1939.75 358.101 1939.75Z" fill="#FFFFFF" fill-rule="evenodd"/><path d="M429.143 1902.75 446.903 1902.75 446.903 1939.75 429.143 1939.75Z" fill="#FFFFFF" fill-rule="evenodd"/><path d="M446.904 1902.75 517.945 1902.75 517.945 1939.75 446.904 1939.75Z" fill="#FFFFFF" fill-rule="evenodd"/><path d="M517.945 1902.75 535.706 1902.75 535.706 1939.75 517.945 1939.75Z" fill="#FFFFFF" fill-rule="evenodd"/><text font-family="Consolas,Consolas_MSFontService,sans-serif" font-weight="400" font-size="32" transform="matrix(1 0 0 1 304.82 1855)">DP: <tspan font-family="Wingdings,Wingdings_MSFontService,sans-serif" font-size="32" x="71.0417" y="0"></tspan><tspan font-size="32" x="0" y="39">CC: </tspan><tspan font-family="Wingdings,Wingdings_MSFontService,sans-serif" font-size="32" x="71.0417" y="39"></tspan><tspan font-weight="700" font-size="32" x="0" y="77">x</tspan><tspan font-size="32" x="17.7604" y="77">: </tspan><tspan font-size="32" x="53.2813" y="77">Next</tspan> <tspan font-size="32" x="142.083" y="77">Code</tspan><tspan font-size="32" x="213.125" y="77">l</tspan><tspan font-size="32" x="-2.55908" y="-515">Example 1</tspan><tspan font-size="32" x="157.285" y="-515">:</tspan></text><path d="M302.261 1344 391.261 1344 480.261 1344 480.261 1346 391.261 1346 302.261 1346Z" fill-rule="evenodd"/><text font-family="Consolas,Consolas_MSFontService,sans-serif" font-weight="400" font-size="32" transform="matrix(1 0 0 1 302.261 1379)">Next<tspan font-size="32" x="88.8021" y="0">codel</tspan><tspan font-size="32" x="195.365" y="0">is</tspan><tspan font-size="32" x="248.646" y="0">valid</tspan><tspan font-size="32" x="337.448" y="0">.</tspan></text><rect x="742.5" y="1488.5" width="65" height="65" stroke="#000000" stroke-width="1.14583" stroke-miterlimit="8" fill="#00FF00"/><rect x="807.5" y="1488.5" width="64.9999" height="65" stroke="#000000" stroke-width="1.14583" stroke-miterlimit="8" fill="#FF00FF"/><rect x="872.5" y="1488.5" width="64.9999" height="65" stroke="#000000" stroke-width="1.14583" stroke-miterlimit="8" fill="#FF00FF"/><rect x="937.5" y="1488.5" width="65" height="65" stroke="#000000" stroke-width="1.14583" stroke-miterlimit="8" fill="#FF00FF"/><rect x="1002.5" y="1488.5" width="65" height="65" stroke="#000000" stroke-width="1.14583" stroke-miterlimit="8" fill="#FF00FF"/><rect x="742.5" y="1553.5" width="65" height="65" stroke="#000000" stroke-width="1.14583" stroke-miterlimit="8" fill="#00FF00"/><rect x="807.5" y="1553.5" width="64.9999" height="65" stroke="#000000" stroke-width="1.14583" stroke-miterlimit="8" fill="#00FF00"/><rect x="1002.5" y="1553.5" width="65" height="65" stroke="#000000" stroke-width="1.14583" stroke-miterlimit="8" fill="#FF00FF"/><path d="M1026.28 1580.5 1030.31 1580.5 1035.08 1587.47 1039.76 1580.5 1043.64 1580.5 1036.83 1589.6 1043.93 1598.64 1039.76 1598.64 1034.86 1591.72 1030.02 1598.64 1025.96 1598.64 1032.99 1589.53Z" stroke="#000000" stroke-width="3" stroke-linejoin="round" stroke-miterlimit="10" fill="#FFFFFF" fill-rule="evenodd"/><text fill="#000000" fill-opacity="0" font-family="Arial,Arial_MSFontService,sans-serif" font-size="18.1387" x="1025.96" y="1596.37">x</text><rect x="938.5" y="1553.5" width="64.9999" height="65" stroke="#000000" stroke-width="1.14583" stroke-miterlimit="8" fill="#FFFFFF"/><rect x="742.5" y="1618.5" width="65" height="65" stroke="#000000" stroke-width="1.14583" stroke-miterlimit="8" fill="#FFFFFF"/><rect x="807.5" y="1618.5" width="64.9999" height="65" stroke="#000000" stroke-width="1.14583" stroke-miterlimit="8" fill="#FFFFFF"/><rect x="872.5" y="1618.5" width="64.9999" height="65" stroke="#000000" stroke-width="1.14583" stroke-miterlimit="8" fill="#C0FFFF"/><rect x="937.5" y="1618.5" width="65" height="65" stroke="#000000" stroke-width="1.14583" stroke-miterlimit="8" fill="#C0FFFF"/><rect x="1002.5" y="1618.5" width="65" height="65" stroke="#000000" stroke-width="1.14583" stroke-miterlimit="8" fill="#FFFFFF"/><rect x="742.5" y="1683.5" width="65" height="65.0004" stroke="#000000" stroke-width="1.14583" stroke-miterlimit="8" fill="#FFFFFF"/><rect x="807.5" y="1683.5" width="64.9999" height="65.0004" stroke="#000000" stroke-width="1.14583" stroke-miterlimit="8" fill="#FFFFFF"/><rect x="872.5" y="1683.5" width="64.9999" height="65.0004" stroke="#000000" stroke-width="1.14583" stroke-miterlimit="8" fill="#FFFFFF"/><rect x="937.5" y="1683.5" width="65" height="65.0004" stroke="#000000" stroke-width="1.14583" stroke-miterlimit="8" fill="#C0FFFF"/><rect x="1002.5" y="1683.5" width="65" height="65.0004" stroke="#000000" stroke-width="1.14583" stroke-miterlimit="8" fill="#C0FFFF"/><rect x="742.5" y="1742.5" width="65" height="65" stroke="#000000" stroke-width="1.14583" stroke-miterlimit="8" fill="#FFFFFF"/><rect x="807.5" y="1742.5" width="64.9999" height="65" stroke="#000000" stroke-width="1.14583" stroke-miterlimit="8" fill="#FFFFFF"/><rect x="872.5" y="1742.5" width="64.9999" height="65" stroke="#000000" stroke-width="1.14583" stroke-miterlimit="8" fill="#FFFFFF"/><rect x="937.5" y="1742.5" width="65" height="65" stroke="#000000" stroke-width="1.14583" stroke-miterlimit="8" fill="#FFFFFF"/><rect x="1002.5" y="1742.5" width="65" height="65" stroke="#000000" stroke-width="1.14583" stroke-miterlimit="8" fill="#FFFFFF"/><rect x="872.5" y="1553.5" width="66" height="65" stroke="#000000" stroke-width="1.14583" stroke-miterlimit="8" fill="#00FF00"/><path d="M901.852 1571.9 906.877 1571.9 920.246 1585.27 906.877 1598.64 901.852 1598.64 913.433 1587.06 890.238 1587.06 890.238 1583.48 913.433 1583.48Z" stroke="#000000" stroke-width="3" stroke-linejoin="round" stroke-miterlimit="10" fill-rule="evenodd"/><text fill="#000000" fill-opacity="0" font-family="Arial,Arial_MSFontService,sans-serif" font-size="26.7383" x="890.238" y="1595.3"></text><text font-family="Consolas,Consolas_MSFontService,sans-serif" font-weight="400" font-size="32" transform="matrix(1 0 0 1 742.174 1340)">Example 2:</text><path d="M742.174 1344 801.508 1344 860.841 1344 920.174 1344 920.174 1346 860.841 1346 801.508 1346 742.174 1346Z" fill-rule="evenodd"/><text font-family="Consolas,Consolas_MSFontService,sans-serif" font-weight="400" font-size="32" transform="matrix(1 0 0 1 742.174 1379)">Travel<tspan font-size="32" x="124.323" y="0">through </tspan><tspan font-size="32" x="0" y="38">white </tspan><tspan font-size="32" x="106.563" y="38">codels</tspan><tspan font-size="32" x="230.885" y="38">–</tspan><tspan font-size="32" x="266.406" y="38">next </tspan><tspan font-size="32" x="0" y="77">codel</tspan><tspan font-size="32" x="106.563" y="77">is valid</tspan></text><path d="M741.391 1900.5 759.151 1900.5 759.151 1937.5 741.391 1937.5Z" fill="#FFFFFF" fill-rule="evenodd"/><path d="M759.151 1900.5 794.672 1900.5 794.672 1937.5 759.151 1937.5Z" fill="#FFFFFF" fill-rule="evenodd"/><path d="M794.672 1900.5 865.714 1900.5 865.714 1937.5 794.672 1937.5Z" fill="#FFFFFF" fill-rule="evenodd"/><path d="M865.714 1900.5 883.474 1900.5 883.474 1937.5 865.714 1937.5Z" fill="#FFFFFF" fill-rule="evenodd"/><path d="M883.474 1900.5 954.516 1900.5 954.516 1937.5 883.474 1937.5Z" fill="#FFFFFF" fill-rule="evenodd"/><path d="M954.516 1900.5 972.276 1900.5 972.276 1937.5 954.516 1937.5Z" fill="#FFFFFF" fill-rule="evenodd"/><text font-family="Consolas,Consolas_MSFontService,sans-serif" font-weight="400" font-size="32" transform="matrix(1 0 0 1 741.391 1852)">DP: <tspan font-family="Wingdings,Wingdings_MSFontService,sans-serif" font-size="32" x="71.0417" y="0"></tspan><tspan font-size="32" x="0" y="39">CC: </tspan><tspan font-family="Wingdings,Wingdings_MSFontService,sans-serif" font-size="32" x="71.0417" y="39"></tspan><tspan font-weight="700" font-size="32" x="0" y="77">x</tspan><tspan font-size="32" x="17.7604" y="77">: </tspan><tspan font-size="32" x="53.2813" y="77">Next</tspan><tspan font-size="32" x="124.323" y="77"> </tspan><tspan font-size="32" x="142.083" y="77">Code</tspan><tspan font-size="32" x="213.125" y="77">l</tspan></text><rect x="1193.5" y="1488.5" width="65" height="65" stroke="#000000" stroke-width="1.14583" stroke-miterlimit="8" fill="#00FF00"/><rect x="1258.5" y="1488.5" width="65" height="65" stroke="#000000" stroke-width="1.14583" stroke-miterlimit="8" fill="#FF00FF"/><rect x="1323.5" y="1488.5" width="65" height="65" stroke="#000000" stroke-width="1.14583" stroke-miterlimit="8" fill="#FF00FF"/><rect x="1388.5" y="1488.5" width="65" height="65" stroke="#000000" stroke-width="1.14583" stroke-miterlimit="8" fill="#FF00FF"/><rect x="1453.5" y="1488.5" width="65" height="65" stroke="#000000" stroke-width="1.14583" stroke-miterlimit="8" fill="#FF00FF"/><rect x="1193.5" y="1553.5" width="65" height="65" stroke="#000000" stroke-width="1.14583" stroke-miterlimit="8" fill="#00FF00"/><rect x="1258.5" y="1553.5" width="65" height="65" stroke="#000000" stroke-width="1.14583" stroke-miterlimit="8" fill="#00FF00"/><rect x="1453.5" y="1553.5" width="65" height="65" stroke="#000000" stroke-width="1.14583" stroke-miterlimit="8"/><rect x="1389.5" y="1553.5" width="65" height="65" stroke="#000000" stroke-width="1.14583" stroke-miterlimit="8" fill="#FFFFFF"/><rect x="1193.5" y="1618.5" width="65" height="65" stroke="#000000" stroke-width="1.14583" stroke-miterlimit="8" fill="#FFFFFF"/><rect x="1258.5" y="1618.5" width="65" height="65" stroke="#000000" stroke-width="1.14583" stroke-miterlimit="8" fill="#FFFFFF"/><rect x="1323.5" y="1618.5" width="65" height="65" stroke="#000000" stroke-width="1.14583" stroke-miterlimit="8" fill="#C0FFFF"/><rect x="1388.5" y="1618.5" width="65" height="65" stroke="#000000" stroke-width="1.14583" stroke-miterlimit="8" fill="#C0FFFF"/><rect x="1453.5" y="1618.5" width="65" height="65" stroke="#000000" stroke-width="1.14583" stroke-miterlimit="8" fill="#FFFFFF"/><rect x="1193.5" y="1683.5" width="65" height="65.0004" stroke="#000000" stroke-width="1.14583" stroke-miterlimit="8" fill="#FFFFFF"/><rect x="1258.5" y="1683.5" width="65" height="65.0004" stroke="#000000" stroke-width="1.14583" stroke-miterlimit="8" fill="#FFFFFF"/><rect x="1323.5" y="1683.5" width="65" height="65.0004" stroke="#000000" stroke-width="1.14583" stroke-miterlimit="8" fill="#FFFFFF"/><rect x="1388.5" y="1683.5" width="65" height="65.0004" stroke="#000000" stroke-width="1.14583" stroke-miterlimit="8" fill="#C0FFFF"/><rect x="1453.5" y="1683.5" width="65" height="65.0004" stroke="#000000" stroke-width="1.14583" stroke-miterlimit="8" fill="#C0FFFF"/><rect x="1193.5" y="1742.5" width="65" height="65" stroke="#000000" stroke-width="1.14583" stroke-miterlimit="8" fill="#FFFFFF"/><rect x="1258.5" y="1742.5" width="65" height="65" stroke="#000000" stroke-width="1.14583" stroke-miterlimit="8" fill="#FFFFFF"/><rect x="1323.5" y="1742.5" width="65" height="65" stroke="#000000" stroke-width="1.14583" stroke-miterlimit="8" fill="#FFFFFF"/><rect x="1388.5" y="1742.5" width="65" height="65" stroke="#000000" stroke-width="1.14583" stroke-miterlimit="8" fill="#FFFFFF"/><rect x="1453.5" y="1742.5" width="65" height="65" stroke="#000000" stroke-width="1.14583" stroke-miterlimit="8" fill="#FFFFFF"/><rect x="1323.5" y="1553.5" width="65" height="65" stroke="#000000" stroke-width="1.14583" stroke-miterlimit="8" fill="#00FF00"/><path d="M1352.18 1571.9 1357.2 1571.9 1370.57 1585.27 1357.2 1598.64 1352.18 1598.64 1363.76 1587.06 1340.56 1587.06 1340.56 1583.48 1363.76 1583.48Z" stroke="#000000" stroke-width="3" stroke-linejoin="round" stroke-miterlimit="10" fill-rule="evenodd"/><text fill="#000000" fill-opacity="0" font-family="Arial,Arial_MSFontService,sans-serif" font-size="26.7383" x="1340.56" y="1595.3"></text><text font-family="Consolas,Consolas_MSFontService,sans-serif" font-weight="400" font-size="32" transform="matrix(1 0 0 1 1192.86 1340)">Example 3<tspan font-size="32" x="159.844" y="0">:</tspan></text><path d="M1192.86 1344 1281.86 1344 1370.86 1344 1370.86 1346 1281.86 1346 1192.86 1346Z" fill-rule="evenodd"/><text font-family="Consolas,Consolas_MSFontService,sans-serif" font-weight="400" font-size="32" transform="matrix(1 0 0 1 1192.86 1379)">Next<tspan font-size="32" x="88.802" y="0">block</tspan><tspan font-size="32" x="195.365" y="0">is </tspan><tspan font-size="32" x="0" y="38">blocking (black)</tspan></text><path d="M1192.08 1900.5 1209.84 1900.5 1209.84 1937.5 1192.08 1937.5Z" fill="#FFFFFF" fill-rule="evenodd"/><path d="M1209.84 1900.5 1245.36 1900.5 1245.36 1937.5 1209.84 1937.5Z" fill="#FFFFFF" fill-rule="evenodd"/><path d="M1245.36 1900.5 1316.4 1900.5 1316.4 1937.5 1245.36 1937.5Z" fill="#FFFFFF" fill-rule="evenodd"/><path d="M1316.4 1900.5 1334.16 1900.5 1334.16 1937.5 1316.4 1937.5Z" fill="#FFFFFF" fill-rule="evenodd"/><path d="M1334.16 1900.5 1405.2 1900.5 1405.2 1937.5 1334.16 1937.5Z" fill="#FFFFFF" fill-rule="evenodd"/><path d="M1405.2 1900.5 1422.96 1900.5 1422.96 1937.5 1405.2 1937.5Z" fill="#FFFFFF" fill-rule="evenodd"/><text font-family="Consolas,Consolas_MSFontService,sans-serif" font-weight="400" font-size="32" transform="matrix(1 0 0 1 1192.08 1852)">DP: <tspan font-family="Wingdings,Wingdings_MSFontService,sans-serif" font-size="32" x="71.0416" y="0"></tspan><tspan font-size="32" x="0" y="39">CC: </tspan><tspan font-family="Wingdings,Wingdings_MSFontService,sans-serif" font-size="32" x="71.0416" y="39"></tspan><tspan font-weight="700" font-size="32" x="0" y="77">x</tspan><tspan font-size="32" x="17.7604" y="77">: </tspan><tspan font-size="32" x="53.2813" y="77">Next</tspan><tspan font-size="32" x="124.323" y="77"> </tspan><tspan font-size="32" x="142.083" y="77">Code</tspan><tspan font-size="32" x="213.125" y="77">l</tspan></text><rect x="1646.5" y="1488.5" width="65" height="65" stroke="#000000" stroke-width="1.14583" stroke-miterlimit="8" fill="#00FF00"/><rect x="1711.5" y="1488.5" width="65" height="65" stroke="#000000" stroke-width="1.14583" stroke-miterlimit="8" fill="#FF00FF"/><rect x="1776.5" y="1488.5" width="65" height="65" stroke="#000000" stroke-width="1.14583" stroke-miterlimit="8" fill="#FF00FF"/><rect x="1841.5" y="1488.5" width="65" height="65" stroke="#000000" stroke-width="1.14583" stroke-miterlimit="8" fill="#FF00FF"/><rect x="1906.5" y="1488.5" width="65" height="65" stroke="#000000" stroke-width="1.14583" stroke-miterlimit="8" fill="#FF00FF"/><rect x="1646.5" y="1553.5" width="65" height="65" stroke="#000000" stroke-width="1.14583" stroke-miterlimit="8" fill="#00FF00"/><rect x="1711.5" y="1553.5" width="65" height="65" stroke="#000000" stroke-width="1.14583" stroke-miterlimit="8" fill="#00FF00"/><rect x="1842.5" y="1553.5" width="65" height="65" stroke="#000000" stroke-width="1.14583" stroke-miterlimit="8" fill="#FFFFFF"/><rect x="1646.5" y="1618.5" width="65" height="65" stroke="#000000" stroke-width="1.14583" stroke-miterlimit="8" fill="#FFFFFF"/><rect x="1711.5" y="1618.5" width="65" height="65" stroke="#000000" stroke-width="1.14583" stroke-miterlimit="8" fill="#FFFFFF"/><rect x="1776.5" y="1618.5" width="65" height="65" stroke="#000000" stroke-width="1.14583" stroke-miterlimit="8" fill="#C0FFFF"/><rect x="1841.5" y="1618.5" width="65" height="65" stroke="#000000" stroke-width="1.14583" stroke-miterlimit="8" fill="#C0FFFF"/><rect x="1906.5" y="1618.5" width="65" height="65" stroke="#000000" stroke-width="1.14583" stroke-miterlimit="8" fill="#FFFFFF"/><rect x="1646.5" y="1683.5" width="65" height="65.0004" stroke="#000000" stroke-width="1.14583" stroke-miterlimit="8" fill="#FFFFFF"/><rect x="1711.5" y="1683.5" width="65" height="65.0004" stroke="#000000" stroke-width="1.14583" stroke-miterlimit="8" fill="#FFFFFF"/><rect x="1776.5" y="1683.5" width="65" height="65.0004" stroke="#000000" stroke-width="1.14583" stroke-miterlimit="8" fill="#FFFFFF"/><rect x="1841.5" y="1683.5" width="65" height="65.0004" stroke="#000000" stroke-width="1.14583" stroke-miterlimit="8" fill="#C0FFFF"/><rect x="1906.5" y="1683.5" width="65" height="65.0004" stroke="#000000" stroke-width="1.14583" stroke-miterlimit="8" fill="#C0FFFF"/><rect x="1646.5" y="1742.5" width="65" height="65" stroke="#000000" stroke-width="1.14583" stroke-miterlimit="8" fill="#FFFFFF"/><rect x="1711.5" y="1742.5" width="65" height="65" stroke="#000000" stroke-width="1.14583" stroke-miterlimit="8" fill="#FFFFFF"/><rect x="1776.5" y="1742.5" width="65" height="65" stroke="#000000" stroke-width="1.14583" stroke-miterlimit="8" fill="#FFFFFF"/><rect x="1841.5" y="1742.5" width="65" height="65" stroke="#000000" stroke-width="1.14583" stroke-miterlimit="8" fill="#FFFFFF"/><rect x="1906.5" y="1742.5" width="65" height="65" stroke="#000000" stroke-width="1.14583" stroke-miterlimit="8" fill="#FFFFFF"/><rect x="1776.5" y="1553.5" width="66" height="65" stroke="#000000" stroke-width="1.14583" stroke-miterlimit="8" fill="#00FF00"/><path d="M1805.55 1571.9 1810.57 1571.9 1823.94 1585.27 1810.57 1598.64 1805.55 1598.64 1817.13 1587.06 1793.93 1587.06 1793.93 1583.48 1817.13 1583.48Z" stroke="#000000" stroke-width="3" stroke-linejoin="round" stroke-miterlimit="10" fill-rule="evenodd"/><text fill="#000000" fill-opacity="0" font-family="Arial,Arial_MSFontService,sans-serif" font-size="26.7383" x="1793.93" y="1595.3"></text><text font-family="Consolas,Consolas_MSFontService,sans-serif" font-weight="400" font-size="32" transform="matrix(1 0 0 1 1645.87 1340)">Example <tspan font-size="32" x="142.083" y="0">4:</tspan></text><path d="M1645.87 1344 1734.87 1344 1823.87 1344 1823.87 1346 1734.87 1346 1645.87 1346Z" fill-rule="evenodd"/><text font-family="Consolas,Consolas_MSFontService,sans-serif" font-weight="400" font-size="32" transform="matrix(1 0 0 1 1645.87 1379)">Travel until the <tspan font-size="32" x="0" y="38">boarder </tspan><tspan font-size="32" x="142.083" y="38">–</tspan><tspan font-size="32" x="177.604" y="38">invalid </tspan><tspan font-size="32" x="0" y="77">codel</tspan></text><path d="M1645.08 1900.5 1662.84 1900.5 1662.84 1937.5 1645.08 1937.5Z" fill="#FFFFFF" fill-rule="evenodd"/><path d="M1662.84 1900.5 1698.37 1900.5 1698.37 1937.5 1662.84 1937.5Z" fill="#FFFFFF" fill-rule="evenodd"/><path d="M1698.37 1900.5 1769.41 1900.5 1769.41 1937.5 1698.37 1937.5Z" fill="#FFFFFF" fill-rule="evenodd"/><path d="M1769.41 1900.5 1787.17 1900.5 1787.17 1937.5 1769.41 1937.5Z" fill="#FFFFFF" fill-rule="evenodd"/><path d="M1787.17 1900.5 1858.21 1900.5 1858.21 1937.5 1787.17 1937.5Z" fill="#FFFFFF" fill-rule="evenodd"/><path d="M1858.21 1900.5 1875.97 1900.5 1875.97 1937.5 1858.21 1937.5Z" fill="#FFFFFF" fill-rule="evenodd"/><text font-family="Consolas,Consolas_MSFontService,sans-serif" font-weight="400" font-size="32" transform="matrix(1 0 0 1 1645.08 1852)">DP: <tspan font-family="Wingdings,Wingdings_MSFontService,sans-serif" font-size="32" x="71.0416" y="0"></tspan><tspan font-size="32" x="0" y="39">CC: </tspan><tspan font-family="Wingdings,Wingdings_MSFontService,sans-serif" font-size="32" x="71.0416" y="39"></tspan><tspan font-weight="700" font-size="32" x="0" y="77">x</tspan><tspan font-size="32" x="17.7604" y="77">: </tspan><tspan font-size="32" x="53.2813" y="77">Next</tspan><tspan font-size="32" x="124.323" y="77"> </tspan><tspan font-size="32" x="142.083" y="77">Code</tspan><tspan font-size="32" x="213.125" y="77">l</tspan></text><rect x="1906.5" y="1553.5" width="65" height="65" stroke="#000000" stroke-width="1.14583" stroke-miterlimit="8" fill="#FFFFFF"/><rect x="2093.5" y="1488.5" width="65" height="65" stroke="#000000" stroke-width="1.14583" stroke-miterlimit="8" fill="#00FF00"/><rect x="2158.5" y="1488.5" width="65" height="65" stroke="#000000" stroke-width="1.14583" stroke-miterlimit="8" fill="#FF00FF"/><rect x="2223.5" y="1488.5" width="65" height="65" stroke="#000000" stroke-width="1.14583" stroke-miterlimit="8" fill="#FF00FF"/><rect x="2288.5" y="1488.5" width="65.0002" height="65" stroke="#000000" stroke-width="1.14583" stroke-miterlimit="8" fill="#FF00FF"/><rect x="2353.5" y="1488.5" width="65" height="65" stroke="#000000" stroke-width="1.14583" stroke-miterlimit="8" fill="#FF00FF"/><rect x="2093.5" y="1553.5" width="65" height="65" stroke="#000000" stroke-width="1.14583" stroke-miterlimit="8" fill="#00FF00"/><rect x="2158.5" y="1553.5" width="65" height="65" stroke="#000000" stroke-width="1.14583" stroke-miterlimit="8" fill="#00FF00"/><rect x="2288.5" y="1553.5" width="65.0002" height="65" stroke="#000000" stroke-width="1.14583" stroke-miterlimit="8" fill="#00FF00"/><rect x="2093.5" y="1618.5" width="65" height="65" stroke="#000000" stroke-width="1.14583" stroke-miterlimit="8" fill="#FFFFFF"/><rect x="2158.5" y="1618.5" width="65" height="65" stroke="#000000" stroke-width="1.14583" stroke-miterlimit="8" fill="#FFFFFF"/><rect x="2223.5" y="1618.5" width="65" height="65" stroke="#000000" stroke-width="1.14583" stroke-miterlimit="8" fill="#C0FFFF"/><rect x="2288.5" y="1618.5" width="65.0002" height="65" stroke="#000000" stroke-width="1.14583" stroke-miterlimit="8" fill="#C0FFFF"/><rect x="2353.5" y="1618.5" width="65" height="65" stroke="#000000" stroke-width="1.14583" stroke-miterlimit="8" fill="#FFFFFF"/><rect x="2093.5" y="1683.5" width="65" height="65.0004" stroke="#000000" stroke-width="1.14583" stroke-miterlimit="8" fill="#FFFFFF"/><rect x="2158.5" y="1683.5" width="65" height="65.0004" stroke="#000000" stroke-width="1.14583" stroke-miterlimit="8" fill="#FFFFFF"/><rect x="2223.5" y="1683.5" width="65" height="65.0004" stroke="#000000" stroke-width="1.14583" stroke-miterlimit="8" fill="#FFFFFF"/><rect x="2288.5" y="1683.5" width="65.0002" height="65.0004" stroke="#000000" stroke-width="1.14583" stroke-miterlimit="8" fill="#C0FFFF"/><rect x="2353.5" y="1683.5" width="65" height="65.0004" stroke="#000000" stroke-width="1.14583" stroke-miterlimit="8" fill="#C0FFFF"/><rect x="2093.5" y="1742.5" width="65" height="65" stroke="#000000" stroke-width="1.14583" stroke-miterlimit="8" fill="#FFFFFF"/><rect x="2158.5" y="1742.5" width="65" height="65" stroke="#000000" stroke-width="1.14583" stroke-miterlimit="8" fill="#FFFFFF"/><rect x="2223.5" y="1742.5" width="65" height="65" stroke="#000000" stroke-width="1.14583" stroke-miterlimit="8" fill="#FFFFFF"/><rect x="2288.5" y="1742.5" width="65.0002" height="65" stroke="#000000" stroke-width="1.14583" stroke-miterlimit="8" fill="#FFFFFF"/><rect x="2353.5" y="1742.5" width="65" height="65" stroke="#000000" stroke-width="1.14583" stroke-miterlimit="8" fill="#FFFFFF"/><rect x="2223.5" y="1553.5" width="65" height="65" stroke="#000000" stroke-width="1.14583" stroke-miterlimit="8" fill="#00FF00"/><text font-family="Consolas,Consolas_MSFontService,sans-serif" font-weight="400" font-size="32" transform="matrix(1 0 0 1 2092.66 1340)">Example 5<tspan font-size="32" x="159.844" y="0">:</tspan></text><path d="M2092.66 1344 2181.66 1344 2270.66 1344 2270.66 1346 2181.66 1346 2092.66 1346Z" fill-rule="evenodd"/><text font-family="Consolas,Consolas_MSFontService,sans-serif" font-weight="400" font-size="32" transform="matrix(1 0 0 1 2092.66 1379)">Next<tspan font-size="32" x="88.8023" y="0">codel</tspan><tspan font-size="32" x="0" y="38">coordinates are out </tspan><tspan font-size="32" x="0" y="77">of bounds </tspan><tspan font-size="32" x="177.604" y="77">-</tspan><tspan font-size="32" x="213.125" y="77">invalid</tspan></text><path d="M2091.88 1900.5 2109.64 1900.5 2109.64 1937.5 2091.88 1937.5Z" fill="#FFFFFF" fill-rule="evenodd"/><path d="M2109.64 1900.5 2145.16 1900.5 2145.16 1937.5 2109.64 1937.5Z" fill="#FFFFFF" fill-rule="evenodd"/><path d="M2145.16 1900.5 2216.2 1900.5 2216.2 1937.5 2145.16 1937.5Z" fill="#FFFFFF" fill-rule="evenodd"/><path d="M2216.2 1900.5 2233.96 1900.5 2233.96 1937.5 2216.2 1937.5Z" fill="#FFFFFF" fill-rule="evenodd"/><path d="M2233.96 1900.5 2305 1900.5 2305 1937.5 2233.96 1937.5Z" fill="#FFFFFF" fill-rule="evenodd"/><path d="M2305 1900.5 2322.76 1900.5 2322.76 1937.5 2305 1937.5Z" fill="#FFFFFF" fill-rule="evenodd"/><text font-family="Consolas,Consolas_MSFontService,sans-serif" font-weight="400" font-size="32" transform="matrix(1 0 0 1 2091.88 1852)">DP: <tspan font-family="Wingdings,Wingdings_MSFontService,sans-serif" font-size="32" x="71.0418" y="0"></tspan><tspan font-size="32" x="0" y="39">CC: </tspan><tspan font-family="Wingdings,Wingdings_MSFontService,sans-serif" font-size="32" x="71.0418" y="39"></tspan><tspan font-weight="700" font-size="32" x="0" y="77">x</tspan><tspan font-size="32" x="17.7605" y="77">: </tspan><tspan font-size="32" x="53.2813" y="77">Next</tspan><tspan font-size="32" x="124.323" y="77"> </tspan><tspan font-size="32" x="142.084" y="77">Code</tspan><tspan font-size="32" x="213.125" y="77">l</tspan></text><rect x="2353.5" y="1553.5" width="65" height="65" stroke="#000000" stroke-width="1.14583" stroke-miterlimit="8" fill="#00FF00"/><path d="M2381.9 1571.95 2386.92 1571.95 2400.29 1585.32 2386.92 1598.69 2381.9 1598.69 2393.48 1587.11 2370.28 1587.11 2370.28 1583.54 2393.48 1583.54Z" stroke="#000000" stroke-width="3" stroke-linejoin="round" stroke-miterlimit="10" fill-rule="evenodd"/><text fill="#000000" fill-opacity="0" font-family="Arial,Arial_MSFontService,sans-serif" font-size="26.7383" x="2370.28" y="1595.35"></text></g></svg>