<svg width="1198" height="774" xmlns="http://www.w3.org/2000/svg" xmlns:xlink="http://www.w3.org/1999/xlink" xml:space="preserve" overflow="hidden"><defs><clipPath id="clip0"><rect x="640" y="871" width="1198" height="774"/></clipPath></defs><g clip-path="url(#clip0)" transform="translate(-640 -871)"><rect x="642.5" y="873.5" width="1193" height="769" stroke="#787878" stroke-width="4.58333" stroke-miterlimit="8" fill="#A5A5A5"/><path d="M684.444 909.028 964.028 909.028 964.028 986.028 684.444 986.028Z" fill="#E9EBF5" fill-rule="evenodd"/><path d="M684.444 986.028 964.028 986.028 964.028 1063.03 684.444 1063.03Z" fill="#E9EBF5" fill-rule="evenodd"/><path d="M684.444 1063.03 964.028 1063.03 964.028 1140.03 684.444 1140.03Z" fill="#E9EBF5" fill-rule="evenodd"/><path d="M684.444 1140.03 964.028 1140.03 964.028 1217.03 684.444 1217.03Z" fill="#E9EBF5" fill-rule="evenodd"/><path d="M684.444 1217.03 964.028 1217.03 964.028 1294.03 684.444 1294.03Z" fill="#E9EBF5" fill-rule="evenodd"/><path d="M684.444 1294.03 964.028 1294.03 964.028 1371.03 684.444 1371.03Z" fill="#E9EBF5" fill-rule="evenodd"/><path d="M684.444 1371.03 964.028 1371.03 964.028 1448.03 684.444 1448.03Z" fill="#E9EBF5" fill-rule="evenodd"/><path d="M682.153 986.028 966.319 986.028" stroke="#FFFFFF" stroke-width="4.58333" stroke-linejoin="round" stroke-miterlimit="10" fill="none" fill-rule="evenodd"/><path d="M682.153 1063.03 966.319 1063.03" stroke="#FFFFFF" stroke-width="4.58333" stroke-linejoin="round" stroke-miterlimit="10" fill="none" fill-rule="evenodd"/><path d="M682.153 1140.03 966.319 1140.03" stroke="#FFFFFF" stroke-width="4.58333" stroke-linejoin="round" stroke-miterlimit="10" fill="none" fill-rule="evenodd"/><path d="M682.153 1217.03 966.319 1217.03" stroke="#FFFFFF" stroke-width="4.58333" stroke-linejoin="round" stroke-miterlimit="10" fill="none" fill-rule="evenodd"/><path d="M682.153 1294.03 966.319 1294.03" stroke="#FFFFFF" stroke-width="4.58333" stroke-linejoin="round" stroke-miterlimit="10" fill="none" fill-rule="evenodd"/><path d="M682.153 1371.03 966.319 1371.03" stroke="#FFFFFF" stroke-width="4.58333" stroke-linejoin="round" stroke-miterlimit="10" fill="none" fill-rule="evenodd"/><path d="M684.444 906.736 684.444 1450.32" stroke="#FFFFFF" stroke-width="4.58333" stroke-linejoin="round" stroke-miterlimit="10" fill="none" fill-rule="evenodd"/><path d="M964.028 906.736 964.028 1450.32" stroke="#FFFFFF" stroke-width="4.58333" stroke-linejoin="round" stroke-miterlimit="10" fill="none" fill-rule="evenodd"/><path d="M682.153 909.028 966.319 909.028" stroke="#FFFFFF" stroke-width="4.58333" stroke-linejoin="round" stroke-miterlimit="10" fill="none" fill-rule="evenodd"/><path d="M682.153 1448.03 966.319 1448.03" stroke="#FFFFFF" stroke-width="4.58333" stroke-linejoin="round" stroke-miterlimit="10" fill="none" fill-rule="evenodd"/><text font-family="MesloLGM Nerd Font,MesloLGM Nerd Font_MSFontService,sans-serif" font-weight="400" font-size="37" transform="matrix(1 0 0 1 813.064 959)">3<tspan font-size="37" x="0" y="77">1</tspan><tspan font-size="37" x="0" y="154">5</tspan><tspan font-size="37" x="0" y="231">4</tspan><tspan font-size="37" x="0" y="308">3</tspan><tspan font-size="37" x="0" y="385">2</tspan><tspan font-size="37" x="0" y="462">1</tspan></text><path d="M1515.55 1063.03 1795.14 1063.03 1795.14 1140.03 1515.55 1140.03Z" fill="#E9EBF5" fill-rule="evenodd"/><path d="M1515.55 1140.03 1795.14 1140.03 1795.14 1217.03 1515.55 1217.03Z" fill="#E9EBF5" fill-rule="evenodd"/><path d="M1515.55 1217.03 1795.14 1217.03 1795.14 1294.03 1515.55 1294.03Z" fill="#E9EBF5" fill-rule="evenodd"/><path d="M1515.55 1294.03 1795.14 1294.03 1795.14 1371.03 1515.55 1371.03Z" fill="#E9EBF5" fill-rule="evenodd"/><path d="M1515.55 1371.03 1795.14 1371.03 1795.14 1448.03 1515.55 1448.03Z" fill="#E9EBF5" fill-rule="evenodd"/><path d="M1513.26 1140.03 1797.43 1140.03" stroke="#FFFFFF" stroke-width="4.58333" stroke-linejoin="round" stroke-miterlimit="10" fill="none" fill-rule="evenodd"/><path d="M1513.26 1217.03 1797.43 1217.03" stroke="#FFFFFF" stroke-width="4.58333" stroke-linejoin="round" stroke-miterlimit="10" fill="none" fill-rule="evenodd"/><path d="M1513.26 1294.03 1797.43 1294.03" stroke="#FFFFFF" stroke-width="4.58333" stroke-linejoin="round" stroke-miterlimit="10" fill="none" fill-rule="evenodd"/><path d="M1513.26 1371.03 1797.43 1371.03" stroke="#FFFFFF" stroke-width="4.58333" stroke-linejoin="round" stroke-miterlimit="10" fill="none" fill-rule="evenodd"/><path d="M1515.55 1060.74 1515.55 1450.32" stroke="#FFFFFF" stroke-width="4.58333" stroke-linejoin="round" stroke-miterlimit="10" fill="none" fill-rule="evenodd"/><path d="M1795.14 1060.74 1795.14 1450.32" stroke="#FFFFFF" stroke-width="4.58333" stroke-linejoin="round" stroke-miterlimit="10" fill="none" fill-rule="evenodd"/><path d="M1513.26 1063.03 1797.43 1063.03" stroke="#FFFFFF" stroke-width="4.58333" stroke-linejoin="round" stroke-miterlimit="10" fill="none" fill-rule="evenodd"/><path d="M1513.26 1448.03 1797.43 1448.03" stroke="#FFFFFF" stroke-width="4.58333" stroke-linejoin="round" stroke-miterlimit="10" fill="none" fill-rule="evenodd"/><text font-family="MesloLGM Nerd Font,MesloLGM Nerd Font_MSFontService,sans-serif" font-weight="400" font-size="37" transform="matrix(1 0 0 1 1644.17 1113)">4<tspan font-size="37" x="0" y="77">3</tspan><tspan font-size="37" x="0" y="154">5</tspan><tspan font-size="37" x="0" y="231">2</tspan><tspan font-size="37" x="0" y="308">1</tspan></text><path d="M1100 1063.03 1379.58 1063.03 1379.58 1140.03 1100 1140.03Z" fill="#E9EBF5" fill-rule="evenodd"/><path d="M1100 1140.03 1379.58 1140.03 1379.58 1217.03 1100 1217.03Z" fill="#E9EBF5" fill-rule="evenodd"/><path d="M1100 1217.03 1379.58 1217.03 1379.58 1294.03 1100 1294.03Z" fill="#E9EBF5" fill-rule="evenodd"/><path d="M1100 1294.03 1379.58 1294.03 1379.58 1371.03 1100 1371.03Z" fill="#E9EBF5" fill-rule="evenodd"/><path d="M1100 1371.03 1379.58 1371.03 1379.58 1448.03 1100 1448.03Z" fill="#E9EBF5" fill-rule="evenodd"/><path d="M1097.71 1140.03 1381.87 1140.03" stroke="#FFFFFF" stroke-width="4.58333" stroke-linejoin="round" stroke-miterlimit="10" fill="none" fill-rule="evenodd"/><path d="M1097.71 1217.03 1381.87 1217.03" stroke="#FFFFFF" stroke-width="4.58333" stroke-linejoin="round" stroke-miterlimit="10" fill="none" fill-rule="evenodd"/><path d="M1097.71 1294.03 1381.87 1294.03" stroke="#FFFFFF" stroke-width="4.58333" stroke-linejoin="round" stroke-miterlimit="10" fill="none" fill-rule="evenodd"/><path d="M1097.71 1371.03 1381.87 1371.03" stroke="#FFFFFF" stroke-width="4.58333" stroke-linejoin="round" stroke-miterlimit="10" fill="none" fill-rule="evenodd"/><path d="M1100 1060.74 1100 1450.32" stroke="#FFFFFF" stroke-width="4.58333" stroke-linejoin="round" stroke-miterlimit="10" fill="none" fill-rule="evenodd"/><path d="M1379.58 1060.74 1379.58 1450.32" stroke="#FFFFFF" stroke-width="4.58333" stroke-linejoin="round" stroke-miterlimit="10" fill="none" fill-rule="evenodd"/><path d="M1097.71 1063.03 1381.87 1063.03" stroke="#FFFFFF" stroke-width="4.58333" stroke-linejoin="round" stroke-miterlimit="10" fill="none" fill-rule="evenodd"/><path d="M1097.71 1448.03 1381.87 1448.03" stroke="#FFFFFF" stroke-width="4.58333" stroke-linejoin="round" stroke-miterlimit="10" fill="none" fill-rule="evenodd"/><text font-family="MesloLGM Nerd Font,MesloLGM Nerd Font_MSFontService,sans-serif" font-weight="400" font-size="37" transform="matrix(1 0 0 1 1228.62 1113)">5<tspan font-size="37" x="0" y="77">4</tspan><tspan font-size="37" x="0" y="154">3</tspan><tspan font-size="37" x="0" y="231">2</tspan><tspan font-size="37" x="0" y="308">1</tspan><tspan font-size="37" x="-84.9254" y="-154">depth: 3</tspan><tspan font-size="37" x="-84.9254" y="-110">rolls: 1 </tspan><tspan font-size="37" x="-538.675" y="396">initial </tspan><tspan font-size="37" x="-538.675" y="440">program </tspan><tspan font-size="37" x="-538.675" y="484">stack</tspan><tspan font-size="37" x="-123.12" y="396">during the </tspan><tspan font-size="37" x="-123.12" y="440">roll </tspan><tspan font-size="37" x="-123.12" y="484">operation</tspan><tspan font-size="37" x="292.435" y="391">resulting </tspan><tspan font-size="37" x="292.435" y="435">program </tspan><tspan font-size="37" x="292.435" y="479">stack</tspan></text></g></svg>