<svg width="1467" height="1309" xmlns="http://www.w3.org/2000/svg" xmlns:xlink="http://www.w3.org/1999/xlink" xml:space="preserve" overflow="hidden"><defs><clipPath id="clip0"><rect x="223" y="608" width="1467" height="1309"/></clipPath></defs><g clip-path="url(#clip0)" transform="translate(-223 -608)"><rect x="223.5" y="608.5" width="1407" height="1308" stroke="#000000" stroke-width="1.14583" stroke-miterlimit="8" fill="#FFFFFF"/><rect x="304.5" y="721.5" width="65" height="64.9999" stroke="#000000" stroke-width="1.14583" stroke-miterlimit="8" fill="#00FF00"/><rect x="369.5" y="721.5" width="65" height="64.9999" stroke="#000000" stroke-width="1.14583" stroke-miterlimit="8" fill="#FF00FF"/><rect x="434.5" y="721.5" width="65" height="64.9999" stroke="#000000" stroke-width="1.14583" stroke-miterlimit="8" fill="#FF00FF"/><rect x="499.5" y="721.5" width="65" height="64.9999" stroke="#000000" stroke-width="1.14583" stroke-miterlimit="8" fill="#FF00FF"/><rect x="564.5" y="721.5" width="64.9999" height="64.9999" stroke="#000000" stroke-width="1.14583" stroke-miterlimit="8" fill="#FFFFFF"/><rect x="304.5" y="786.5" width="65" height="63.9999" stroke="#000000" stroke-width="1.14583" stroke-miterlimit="8" fill="#00FF00"/><rect x="369.5" y="786.5" width="65" height="63.9999" stroke="#000000" stroke-width="1.14583" stroke-miterlimit="8" fill="#00FF00"/><rect x="499.5" y="786.5" width="65" height="63.9999" stroke="#000000" stroke-width="1.14583" stroke-miterlimit="8" fill="#FF00FF"/><rect x="564.5" y="786.5" width="64.9999" height="63.9999" stroke="#000000" stroke-width="1.14583" stroke-miterlimit="8" fill="#FFFFFF"/><rect x="304.5" y="850.5" width="65" height="64.9999" stroke="#000000" stroke-width="1.14583" stroke-miterlimit="8" fill="#FFFFFF"/><rect x="369.5" y="850.5" width="65" height="64.9999" stroke="#000000" stroke-width="1.14583" stroke-miterlimit="8" fill="#FFFFFF"/><rect x="434.5" y="850.5" width="65" height="64.9999" stroke="#000000" stroke-width="1.14583" stroke-miterlimit="8" fill="#C0FFFF"/><rect x="499.5" y="850.5" width="65" height="64.9999" stroke="#000000" stroke-width="1.14583" stroke-miterlimit="8" fill="#C0FFFF"/><rect x="564.5" y="850.5" width="64.9999" height="64.9999" stroke="#000000" stroke-width="1.14583" stroke-miterlimit="8" fill="#FFFFFF"/><rect x="304.5" y="915.5" width="65" height="65" stroke="#000000" stroke-width="1.14583" stroke-miterlimit="8" fill="#FFFFFF"/><rect x="369.5" y="915.5" width="65" height="65" stroke="#000000" stroke-width="1.14583" stroke-miterlimit="8" fill="#FFFFFF"/><rect x="434.5" y="915.5" width="65" height="65" stroke="#000000" stroke-width="1.14583" stroke-miterlimit="8" fill="#FFFFFF"/><rect x="499.5" y="915.5" width="65" height="65" stroke="#000000" stroke-width="1.14583" stroke-miterlimit="8" fill="#C0FFFF"/><rect x="564.5" y="915.5" width="64.9999" height="65" stroke="#000000" stroke-width="1.14583" stroke-miterlimit="8" fill="#C0FFFF"/><rect x="304.5" y="974.5" width="65" height="64.9999" stroke="#000000" stroke-width="1.14583" stroke-miterlimit="8" fill="#FFFFFF"/><rect x="369.5" y="974.5" width="65" height="64.9999" stroke="#000000" stroke-width="1.14583" stroke-miterlimit="8" fill="#FFFFFF"/><rect x="434.5" y="974.5" width="65" height="64.9999" stroke="#000000" stroke-width="1.14583" stroke-miterlimit="8" fill="#FFFFFF"/><rect x="499.5" y="974.5" width="65" height="64.9999" stroke="#000000" stroke-width="1.14583" stroke-miterlimit="8" fill="#FFFFFF"/><rect x="564.5" y="974.5" width="64.9999" height="64.9999" stroke="#000000" stroke-width="1.14583" stroke-miterlimit="8" fill="#FFFFFF"/><rect x="434" y="786" width="65" height="63.9999" stroke="#FF0000" stroke-width="10.3125" stroke-miterlimit="8" fill="#00FF00"/><path d="M459.778 812.024C460.212 812.024 460.56 812.035 460.822 812.058 461.084 812.08 461.29 812.114 461.44 812.159 461.59 812.204 461.702 812.264 461.777 812.339 461.852 812.414 461.919 812.503 461.979 812.608L466.583 820.133 471.255 812.608C471.315 812.518 471.383 812.436 471.457 812.361 471.532 812.286 471.633 812.223 471.761 812.17 471.888 812.118 472.068 812.08 472.3 812.058 472.532 812.035 472.85 812.024 473.254 812.024 473.689 812.024 474.044 812.039 474.321 812.069 474.598 812.099 474.804 812.155 474.939 812.238 475.074 812.32 475.134 812.436 475.119 812.586 475.104 812.735 475.029 812.923 474.894 813.147L468.987 822.536 475.231 832.509C475.351 832.718 475.411 832.894 475.411 833.036 475.411 833.179 475.339 833.295 475.197 833.385 475.055 833.474 474.838 833.538 474.546 833.575 474.254 833.613 473.876 833.632 473.412 833.632 472.962 833.632 472.607 833.62 472.345 833.598 472.083 833.575 471.873 833.538 471.716 833.486 471.559 833.433 471.439 833.366 471.356 833.283 471.274 833.201 471.203 833.107 471.143 833.003L466.291 824.984 461.462 833.003C461.402 833.107 461.331 833.201 461.249 833.283 461.167 833.366 461.047 833.433 460.89 833.486 460.732 833.538 460.526 833.575 460.272 833.598 460.017 833.62 459.68 833.632 459.261 833.632 458.827 833.632 458.471 833.613 458.194 833.575 457.917 833.538 457.715 833.474 457.588 833.385 457.461 833.295 457.401 833.179 457.408 833.036 457.416 832.894 457.487 832.718 457.621 832.509L463.911 822.648 457.958 813.147C457.839 812.938 457.775 812.762 457.767 812.619 457.76 812.477 457.827 812.357 457.97 812.26 458.112 812.163 458.329 812.099 458.621 812.069 458.913 812.039 459.299 812.024 459.778 812.024Z" stroke="#000000" stroke-width="3" stroke-linejoin="round" stroke-miterlimit="10" fill-rule="evenodd"/><text fill="#000000" fill-opacity="0" font-family="Arial,Arial_MSFontService,sans-serif" font-size="21.6074" x="457.408" y="830.931">x</text><path d="M306.438 1135.11 395.24 1135.11 395.24 1172.11 306.438 1172.11Z" fill="#FF0000" fill-rule="evenodd"/><path d="M395.24 1135.11 413.001 1135.11 413.001 1172.11 395.24 1172.11Z" fill="#FF0000" fill-rule="evenodd"/><path d="M413.001 1135.11 484.043 1135.11 484.043 1172.11 413.001 1172.11Z" fill="#FF0000" fill-rule="evenodd"/><path d="M306.438 1174.11 324.199 1174.11 324.199 1211.11 306.438 1211.11Z" fill="#FFFFFF" fill-rule="evenodd"/><path d="M324.199 1174.11 555.084 1174.11 555.084 1211.11 324.199 1211.11Z" fill="#FFFFFF" fill-rule="evenodd"/><path d="M555.084 1174.11 643.886 1174.11 643.886 1211.11 555.084 1211.11Z" fill="#FFFFFF" fill-rule="evenodd"/><text font-family="Consolas,Consolas_MSFontService,sans-serif" font-weight="400" font-size="32" transform="matrix(1 0 0 1 306.438 1087)">DP: <tspan font-family="Wingdings,Wingdings_MSFontService,sans-serif" font-size="32" x="71.0417" y="0"></tspan><tspan font-size="32" x="0" y="39">CC: </tspan><tspan font-family="Wingdings,Wingdings_MSFontService,sans-serif" font-size="32" x="71.0417" y="39"></tspan><tspan font-size="32" x="0" y="77">Codel</tspan><tspan font-size="32" x="88.8021" y="77"> </tspan>Edge<tspan font-weight="700" font-size="32" x="0" y="116">x</tspan><tspan font-size="32" x="17.7604" y="116">: Transition </tspan>Codel</text><rect x="753.5" y="722.5" width="65" height="64.9999" stroke="#000000" stroke-width="1.14583" stroke-miterlimit="8" fill="#00FF00"/><rect x="818.5" y="722.5" width="64.9999" height="64.9999" stroke="#000000" stroke-width="1.14583" stroke-miterlimit="8" fill="#FF00FF"/><rect x="883.5" y="722.5" width="64.9999" height="64.9999" stroke="#000000" stroke-width="1.14583" stroke-miterlimit="8" fill="#FF00FF"/><rect x="948.5" y="722.5" width="65" height="64.9999" stroke="#000000" stroke-width="1.14583" stroke-miterlimit="8" fill="#FF00FF"/><rect x="1013.5" y="722.5" width="65" height="64.9999" stroke="#000000" stroke-width="1.14583" stroke-miterlimit="8" fill="#FFFFFF"/><rect x="753.5" y="787.5" width="65" height="64.9999" stroke="#000000" stroke-width="1.14583" stroke-miterlimit="8" fill="#00FF00"/><rect x="818.5" y="787.5" width="64.9999" height="64.9999" stroke="#000000" stroke-width="1.14583" stroke-miterlimit="8" fill="#00FF00"/><rect x="948.5" y="787.5" width="65" height="64.9999" stroke="#000000" stroke-width="1.14583" stroke-miterlimit="8" fill="#FF00FF"/><rect x="1013.5" y="787.5" width="65" height="64.9999" stroke="#000000" stroke-width="1.14583" stroke-miterlimit="8" fill="#FFFFFF"/><rect x="753.5" y="852.5" width="65" height="65" stroke="#000000" stroke-width="1.14583" stroke-miterlimit="8" fill="#FFFFFF"/><rect x="818.5" y="852.5" width="64.9999" height="65" stroke="#000000" stroke-width="1.14583" stroke-miterlimit="8" fill="#00FF00"/><rect x="883.5" y="852.5" width="64.9999" height="65" stroke="#000000" stroke-width="1.14583" stroke-miterlimit="8" fill="#C0FFFF"/><rect x="948.5" y="852.5" width="65" height="65" stroke="#000000" stroke-width="1.14583" stroke-miterlimit="8" fill="#C0FFFF"/><rect x="1013.5" y="852.5" width="65" height="65" stroke="#000000" stroke-width="1.14583" stroke-miterlimit="8" fill="#FFFFFF"/><rect x="753.5" y="917.5" width="65" height="64.9999" stroke="#000000" stroke-width="1.14583" stroke-miterlimit="8" fill="#FFFFFF"/><rect x="818.5" y="917.5" width="64.9999" height="64.9999" stroke="#000000" stroke-width="1.14583" stroke-miterlimit="8" fill="#00FF00"/><rect x="948.5" y="917.5" width="65" height="64.9999" stroke="#000000" stroke-width="1.14583" stroke-miterlimit="8" fill="#C0FFFF"/><rect x="1013.5" y="917.5" width="65" height="64.9999" stroke="#000000" stroke-width="1.14583" stroke-miterlimit="8" fill="#C0FFFF"/><rect x="753.5" y="976.5" width="65" height="65" stroke="#000000" stroke-width="1.14583" stroke-miterlimit="8" fill="#FFFFFF"/><rect x="818.5" y="976.5" width="64.9999" height="65" stroke="#000000" stroke-width="1.14583" stroke-miterlimit="8" fill="#FFFFFF"/><rect x="883.5" y="976.5" width="64.9999" height="65" stroke="#000000" stroke-width="1.14583" stroke-miterlimit="8" fill="#FFFFFF"/><rect x="948.5" y="976.5" width="65" height="65" stroke="#000000" stroke-width="1.14583" stroke-miterlimit="8" fill="#FFFFFF"/><rect x="1013.5" y="976.5" width="65" height="65" stroke="#000000" stroke-width="1.14583" stroke-miterlimit="8" fill="#FFFFFF"/><rect x="883" y="787" width="65" height="65.0003" stroke="#FF0000" stroke-width="10.3125" stroke-miterlimit="8" fill="#00FF00"/><path d="M909.042 813.305C909.476 813.305 909.825 813.317 910.087 813.339 910.349 813.361 910.555 813.395 910.704 813.44 910.854 813.485 910.966 813.545 911.041 813.62 911.116 813.695 911.183 813.784 911.243 813.889L915.848 821.414 920.52 813.889C920.58 813.799 920.647 813.717 920.722 813.642 920.797 813.567 920.898 813.504 921.025 813.451 921.152 813.399 921.332 813.361 921.564 813.339 921.796 813.317 922.114 813.305 922.519 813.305 922.953 813.305 923.309 813.32 923.586 813.35 923.863 813.38 924.069 813.436 924.203 813.519 924.338 813.601 924.398 813.717 924.383 813.867 924.368 814.017 924.293 814.204 924.158 814.428L918.251 823.817 924.495 833.79C924.615 833.999 924.675 834.175 924.675 834.318 924.675 834.46 924.604 834.576 924.462 834.666 924.319 834.755 924.102 834.819 923.81 834.857 923.518 834.894 923.14 834.913 922.676 834.913 922.227 834.913 921.871 834.901 921.609 834.879 921.347 834.857 921.137 834.819 920.98 834.767 920.823 834.714 920.703 834.647 920.621 834.565 920.538 834.482 920.467 834.389 920.407 834.284L915.556 826.265 910.727 834.284C910.667 834.389 910.596 834.482 910.513 834.565 910.431 834.647 910.311 834.714 910.154 834.767 909.997 834.819 909.791 834.857 909.536 834.879 909.282 834.901 908.945 834.913 908.526 834.913 908.091 834.913 907.736 834.894 907.459 834.857 907.182 834.819 906.979 834.755 906.852 834.666 906.725 834.576 906.665 834.46 906.673 834.318 906.68 834.175 906.751 833.999 906.886 833.79L913.175 823.929 907.223 814.428C907.103 814.219 907.039 814.043 907.032 813.901 907.024 813.758 907.092 813.638 907.234 813.541 907.376 813.444 907.593 813.38 907.885 813.35 908.177 813.32 908.563 813.305 909.042 813.305Z" stroke="#000000" stroke-width="3" stroke-linejoin="round" stroke-miterlimit="10" fill-rule="evenodd"/><text fill="#000000" fill-opacity="0" font-family="Arial,Arial_MSFontService,sans-serif" font-size="21.6074" x="906.672" y="832.212">x</text><path d="M752.265 1138.68 841.067 1138.68 841.067 1175.68 752.265 1175.68Z" fill="#FF0000" fill-rule="evenodd"/><path d="M841.067 1138.68 858.827 1138.68 858.827 1175.68 841.067 1175.68Z" fill="#FF0000" fill-rule="evenodd"/><path d="M858.827 1138.68 929.869 1138.68 929.869 1175.68 858.827 1175.68Z" fill="#FF0000" fill-rule="evenodd"/><path d="M752.265 1177.68 770.025 1177.68 770.025 1214.68 752.265 1214.68Z" fill="#FFFFFF" fill-rule="evenodd"/><path d="M770.025 1177.68 1000.91 1177.68 1000.91 1214.68 770.025 1214.68Z" fill="#FFFFFF" fill-rule="evenodd"/><path d="M1000.91 1177.68 1089.71 1177.68 1089.71 1214.68 1000.91 1214.68Z" fill="#FFFFFF" fill-rule="evenodd"/><text font-family="Consolas,Consolas_MSFontService,sans-serif" font-weight="400" font-size="32" transform="matrix(1 0 0 1 752.265 1091)">DP: <tspan font-family="Wingdings,Wingdings_MSFontService,sans-serif" font-size="32" x="71.0416" y="0"></tspan><tspan font-size="32" x="0" y="39">CC: </tspan><tspan font-family="Wingdings,Wingdings_MSFontService,sans-serif" font-size="32" x="71.0416" y="39"></tspan><tspan font-size="32" x="0" y="77">Codel</tspan><tspan font-size="32" x="88.8021" y="77"> </tspan><tspan font-size="32" x="106.563" y="77">Edge</tspan><tspan font-weight="700" font-size="32" x="0" y="116">x</tspan><tspan font-size="32" x="17.7604" y="116">: Transition </tspan><tspan font-size="32" x="248.646" y="116">Codel</tspan></text><rect x="883" y="917" width="65" height="65" stroke="#FF0000" stroke-width="10.3125" stroke-miterlimit="8" fill="#00FF00"/><rect x="1230.5" y="722.5" width="65" height="64.9999" stroke="#000000" stroke-width="1.14583" stroke-miterlimit="8" fill="#00FF00"/><rect x="1295.5" y="722.5" width="65" height="64.9999" stroke="#000000" stroke-width="1.14583" stroke-miterlimit="8" fill="#FF00FF"/><rect x="1360.5" y="722.5" width="65" height="64.9999" stroke="#000000" stroke-width="1.14583" stroke-miterlimit="8" fill="#FF00FF"/><rect x="1425.5" y="722.5" width="65" height="64.9999" stroke="#000000" stroke-width="1.14583" stroke-miterlimit="8" fill="#FF00FF"/><rect x="1490.5" y="722.5" width="65" height="64.9999" stroke="#000000" stroke-width="1.14583" stroke-miterlimit="8" fill="#FFFFFF"/><rect x="1230.5" y="787.5" width="65" height="64.9999" stroke="#000000" stroke-width="1.14583" stroke-miterlimit="8" fill="#00FF00"/><rect x="1295.5" y="787.5" width="65" height="64.9999" stroke="#000000" stroke-width="1.14583" stroke-miterlimit="8" fill="#00FF00"/><rect x="1425.5" y="787.5" width="65" height="64.9999" stroke="#000000" stroke-width="1.14583" stroke-miterlimit="8" fill="#FF00FF"/><rect x="1490.5" y="787.5" width="65" height="64.9999" stroke="#000000" stroke-width="1.14583" stroke-miterlimit="8" fill="#FFFFFF"/><rect x="1230.5" y="852.5" width="65" height="65" stroke="#000000" stroke-width="1.14583" stroke-miterlimit="8" fill="#FFFFFF"/><rect x="1295.5" y="852.5" width="65" height="65" stroke="#000000" stroke-width="1.14583" stroke-miterlimit="8" fill="#00FF00"/><rect x="1425.5" y="852.5" width="65" height="65" stroke="#000000" stroke-width="1.14583" stroke-miterlimit="8" fill="#C0FFFF"/><rect x="1490.5" y="852.5" width="65" height="65" stroke="#000000" stroke-width="1.14583" stroke-miterlimit="8" fill="#FFFFFF"/><rect x="1230.5" y="917.5" width="65" height="64.9999" stroke="#000000" stroke-width="1.14583" stroke-miterlimit="8" fill="#FFFFFF"/><rect x="1295.5" y="917.5" width="65" height="64.9999" stroke="#000000" stroke-width="1.14583" stroke-miterlimit="8" fill="#00FF00"/><rect x="1425.5" y="917.5" width="65" height="64.9999" stroke="#000000" stroke-width="1.14583" stroke-miterlimit="8" fill="#C0FFFF"/><rect x="1490.5" y="917.5" width="65" height="64.9999" stroke="#000000" stroke-width="1.14583" stroke-miterlimit="8" fill="#C0FFFF"/><rect x="1230.5" y="976.5" width="65" height="65" stroke="#000000" stroke-width="1.14583" stroke-miterlimit="8" fill="#FFFFFF"/><rect x="1295.5" y="976.5" width="65" height="65" stroke="#000000" stroke-width="1.14583" stroke-miterlimit="8" fill="#FFFFFF"/><rect x="1360.5" y="976.5" width="65" height="65" stroke="#000000" stroke-width="1.14583" stroke-miterlimit="8" fill="#FFFFFF"/><rect x="1425.5" y="976.5" width="65" height="65" stroke="#000000" stroke-width="1.14583" stroke-miterlimit="8" fill="#FFFFFF"/><rect x="1490.5" y="976.5" width="65" height="65" stroke="#000000" stroke-width="1.14583" stroke-miterlimit="8" fill="#FFFFFF"/><rect x="1360" y="787" width="65" height="65.0003" stroke="#FF0000" stroke-width="10.3125" stroke-miterlimit="8" fill="#00FF00"/><path d="M1386.02 813.305C1386.45 813.305 1386.8 813.317 1387.06 813.339 1387.33 813.361 1387.53 813.395 1387.68 813.44 1387.83 813.485 1387.94 813.545 1388.02 813.62 1388.09 813.695 1388.16 813.784 1388.22 813.889L1392.83 821.414 1397.5 813.889C1397.56 813.799 1397.62 813.717 1397.7 813.642 1397.77 813.567 1397.88 813.504 1398 813.451 1398.13 813.399 1398.31 813.361 1398.54 813.339 1398.77 813.317 1399.09 813.305 1399.5 813.305 1399.93 813.305 1400.29 813.32 1400.56 813.35 1400.84 813.38 1401.05 813.436 1401.18 813.519 1401.32 813.601 1401.38 813.717 1401.36 813.867 1401.35 814.017 1401.27 814.204 1401.14 814.428L1395.23 823.817 1401.47 833.79C1401.59 833.999 1401.65 834.175 1401.65 834.318 1401.65 834.46 1401.58 834.576 1401.44 834.666 1401.3 834.755 1401.08 834.819 1400.79 834.857 1400.5 834.894 1400.12 834.913 1399.65 834.913 1399.2 834.913 1398.85 834.901 1398.59 834.879 1398.32 834.857 1398.12 834.819 1397.96 834.767 1397.8 834.714 1397.68 834.647 1397.6 834.565 1397.52 834.482 1397.45 834.389 1397.39 834.284L1392.53 826.265 1387.7 834.284C1387.64 834.389 1387.57 834.482 1387.49 834.565 1387.41 834.647 1387.29 834.714 1387.13 834.767 1386.97 834.819 1386.77 834.857 1386.51 834.879 1386.26 834.901 1385.92 834.913 1385.5 834.913 1385.07 834.913 1384.71 834.894 1384.44 834.857 1384.16 834.819 1383.96 834.755 1383.83 834.666 1383.7 834.576 1383.64 834.46 1383.65 834.318 1383.66 834.175 1383.73 833.999 1383.86 833.79L1390.15 823.929 1384.2 814.428C1384.08 814.219 1384.02 814.043 1384.01 813.901 1384 813.758 1384.07 813.638 1384.21 813.541 1384.35 813.444 1384.57 813.38 1384.86 813.35 1385.16 813.32 1385.54 813.305 1386.02 813.305Z" stroke="#000000" stroke-width="3" stroke-linejoin="round" stroke-miterlimit="10" fill-rule="evenodd"/><text fill="#000000" fill-opacity="0" font-family="Arial,Arial_MSFontService,sans-serif" font-size="21.6074" x="1383.65" y="832.212">x</text><path d="M1228.67 1138.68 1317.47 1138.68 1317.47 1175.68 1228.67 1175.68Z" fill="#FF0000" fill-rule="evenodd"/><path d="M1317.47 1138.68 1335.23 1138.68 1335.23 1175.68 1317.47 1175.68Z" fill="#FF0000" fill-rule="evenodd"/><path d="M1335.23 1138.68 1406.27 1138.68 1406.27 1175.68 1335.23 1175.68Z" fill="#FF0000" fill-rule="evenodd"/><path d="M1228.67 1177.68 1246.43 1177.68 1246.43 1214.68 1228.67 1214.68Z" fill="#FFFFFF" fill-rule="evenodd"/><path d="M1246.43 1177.68 1477.32 1177.68 1477.32 1214.68 1246.43 1214.68Z" fill="#FFFFFF" fill-rule="evenodd"/><path d="M1477.32 1177.68 1566.12 1177.68 1566.12 1214.68 1477.32 1214.68Z" fill="#FFFFFF" fill-rule="evenodd"/><text font-family="Consolas,Consolas_MSFontService,sans-serif" font-weight="400" font-size="32" transform="matrix(1 0 0 1 1228.67 1091)">DP: <tspan font-family="Wingdings,Wingdings_MSFontService,sans-serif" font-size="32" x="71.0418" y="0"></tspan><tspan font-size="32" x="0" y="39">CC: </tspan><tspan font-family="Wingdings,Wingdings_MSFontService,sans-serif" font-size="32" x="71.0418" y="39"></tspan><tspan font-size="32" x="0" y="77">Codel</tspan><tspan font-size="32" x="88.8021" y="77"> </tspan><tspan font-size="32" x="106.563" y="77">Edge</tspan><tspan font-weight="700" font-size="32" x="0" y="116">x</tspan><tspan font-size="32" x="17.7605" y="116">: Transition </tspan><tspan font-size="32" x="248.646" y="116">Codel</tspan></text><rect x="1360" y="917" width="65" height="65" stroke="#FF0000" stroke-width="10.3125" stroke-miterlimit="8" fill="#00FF00"/><rect x="1360" y="852" width="65" height="64.9999" stroke="#FF0000" stroke-width="10.3125" stroke-miterlimit="8" fill="#00FF00"/><text font-family="Consolas,Consolas_MSFontService,sans-serif" font-weight="400" font-size="32" transform="matrix(1 0 0 1 303.879 684)">Example 1:</text><rect x="307.5" y="1346.5" width="65" height="65" stroke="#000000" stroke-width="1.14583" stroke-miterlimit="8" fill="#00FF00"/><rect x="372.5" y="1346.5" width="65" height="65" stroke="#000000" stroke-width="1.14583" stroke-miterlimit="8" fill="#FF00FF"/><rect x="437.5" y="1346.5" width="65" height="65" stroke="#000000" stroke-width="1.14583" stroke-miterlimit="8" fill="#FF00FF"/><rect x="502.5" y="1346.5" width="64.9999" height="65" stroke="#000000" stroke-width="1.14583" stroke-miterlimit="8" fill="#FF00FF"/><rect x="567.5" y="1346.5" width="64.9999" height="65" stroke="#000000" stroke-width="1.14583" stroke-miterlimit="8" fill="#FFFFFF"/><rect x="307.5" y="1411.5" width="65" height="65" stroke="#000000" stroke-width="1.14583" stroke-miterlimit="8" fill="#00FF00"/><rect x="372.5" y="1411.5" width="65" height="65" stroke="#000000" stroke-width="1.14583" stroke-miterlimit="8" fill="#00FF00"/><rect x="502.5" y="1411.5" width="64.9999" height="65" stroke="#000000" stroke-width="1.14583" stroke-miterlimit="8" fill="#FF00FF"/><rect x="567.5" y="1411.5" width="64.9999" height="65" stroke="#000000" stroke-width="1.14583" stroke-miterlimit="8" fill="#FFFFFF"/><rect x="307.5" y="1476.5" width="65" height="65" stroke="#000000" stroke-width="1.14583" stroke-miterlimit="8" fill="#FFFFFF"/><rect x="372.5" y="1476.5" width="65" height="65" stroke="#000000" stroke-width="1.14583" stroke-miterlimit="8" fill="#FFFFFF"/><rect x="437.5" y="1476.5" width="65" height="65" stroke="#000000" stroke-width="1.14583" stroke-miterlimit="8" fill="#C0FFFF"/><rect x="502.5" y="1476.5" width="64.9999" height="65" stroke="#000000" stroke-width="1.14583" stroke-miterlimit="8" fill="#C0FFFF"/><rect x="567.5" y="1476.5" width="64.9999" height="65" stroke="#000000" stroke-width="1.14583" stroke-miterlimit="8" fill="#FFFFFF"/><rect x="307.5" y="1541.5" width="65" height="65" stroke="#000000" stroke-width="1.14583" stroke-miterlimit="8" fill="#FFFFFF"/><rect x="372.5" y="1541.5" width="65" height="65" stroke="#000000" stroke-width="1.14583" stroke-miterlimit="8" fill="#FFFFFF"/><rect x="437.5" y="1541.5" width="65" height="65" stroke="#000000" stroke-width="1.14583" stroke-miterlimit="8" fill="#FFFFFF"/><rect x="502.5" y="1541.5" width="64.9999" height="65" stroke="#000000" stroke-width="1.14583" stroke-miterlimit="8" fill="#C0FFFF"/><rect x="567.5" y="1541.5" width="64.9999" height="65" stroke="#000000" stroke-width="1.14583" stroke-miterlimit="8" fill="#C0FFFF"/><rect x="307.5" y="1600.5" width="65" height="65" stroke="#000000" stroke-width="1.14583" stroke-miterlimit="8" fill="#FFFFFF"/><rect x="372.5" y="1600.5" width="65" height="65" stroke="#000000" stroke-width="1.14583" stroke-miterlimit="8" fill="#FFFFFF"/><rect x="437.5" y="1600.5" width="65" height="65" stroke="#000000" stroke-width="1.14583" stroke-miterlimit="8" fill="#FFFFFF"/><rect x="502.5" y="1600.5" width="64.9999" height="65" stroke="#000000" stroke-width="1.14583" stroke-miterlimit="8" fill="#FFFFFF"/><rect x="567.5" y="1600.5" width="64.9999" height="65" stroke="#000000" stroke-width="1.14583" stroke-miterlimit="8" fill="#FFFFFF"/><rect x="437" y="1411" width="65" height="65" stroke="#FF0000" stroke-width="10.3125" stroke-miterlimit="8" fill="#00FF00"/><path d="M462.844 1437.41C463.278 1437.41 463.626 1437.42 463.888 1437.45 464.15 1437.47 464.356 1437.5 464.506 1437.55 464.655 1437.59 464.768 1437.65 464.843 1437.73 464.917 1437.8 464.985 1437.89 465.045 1438L469.649 1445.52 474.321 1438C474.381 1437.91 474.448 1437.82 474.523 1437.75 474.598 1437.67 474.699 1437.61 474.826 1437.56 474.954 1437.51 475.133 1437.47 475.365 1437.45 475.598 1437.42 475.916 1437.41 476.32 1437.41 476.754 1437.41 477.11 1437.43 477.387 1437.46 477.664 1437.49 477.87 1437.54 478.005 1437.63 478.139 1437.71 478.199 1437.82 478.184 1437.97 478.169 1438.12 478.094 1438.31 477.96 1438.54L472.052 1447.92 478.297 1457.9C478.416 1458.11 478.476 1458.28 478.476 1458.42 478.476 1458.57 478.405 1458.68 478.263 1458.77 478.121 1458.86 477.904 1458.93 477.612 1458.96 477.32 1459 476.941 1459.02 476.477 1459.02 476.028 1459.02 475.672 1459.01 475.41 1458.99 475.148 1458.96 474.939 1458.93 474.781 1458.87 474.624 1458.82 474.504 1458.75 474.422 1458.67 474.34 1458.59 474.269 1458.5 474.209 1458.39L469.357 1450.37 464.528 1458.39C464.468 1458.5 464.397 1458.59 464.315 1458.67 464.232 1458.75 464.113 1458.82 463.955 1458.87 463.798 1458.93 463.592 1458.96 463.338 1458.99 463.083 1459.01 462.746 1459.02 462.327 1459.02 461.893 1459.02 461.537 1459 461.26 1458.96 460.983 1458.93 460.781 1458.86 460.654 1458.77 460.526 1458.68 460.466 1458.57 460.474 1458.42 460.481 1458.28 460.552 1458.11 460.687 1457.9L466.976 1448.04 461.024 1438.54C460.904 1438.33 460.841 1438.15 460.833 1438.01 460.826 1437.87 460.893 1437.75 461.035 1437.65 461.178 1437.55 461.395 1437.49 461.687 1437.46 461.979 1437.43 462.364 1437.41 462.844 1437.41Z" stroke="#000000" stroke-width="3" stroke-linejoin="round" stroke-miterlimit="10" fill-rule="evenodd"/><text fill="#000000" fill-opacity="0" font-family="Arial,Arial_MSFontService,sans-serif" font-size="21.6074" x="460.473" y="1456.32">x</text><path d="M309.504 1760.49 398.306 1760.49 398.306 1797.49 309.504 1797.49Z" fill="#FF0000" fill-rule="evenodd"/><path d="M398.306 1760.49 416.067 1760.49 416.067 1797.49 398.306 1797.49Z" fill="#FF0000" fill-rule="evenodd"/><path d="M416.067 1760.49 487.108 1760.49 487.108 1797.49 416.067 1797.49Z" fill="#FF0000" fill-rule="evenodd"/><path d="M309.504 1799.49 327.265 1799.49 327.265 1836.49 309.504 1836.49Z" fill="#FFFFFF" fill-rule="evenodd"/><path d="M327.265 1799.49 558.15 1799.49 558.15 1836.49 327.265 1836.49Z" fill="#FFFFFF" fill-rule="evenodd"/><path d="M558.15 1799.49 646.952 1799.49 646.952 1836.49 558.15 1836.49Z" fill="#FFFFFF" fill-rule="evenodd"/><text font-family="Consolas,Consolas_MSFontService,sans-serif" font-weight="400" font-size="32" transform="matrix(1 0 0 1 309.504 1712)">DP: <tspan font-family="Wingdings,Wingdings_MSFontService,sans-serif" font-size="32" x="71.0417" y="0"></tspan><tspan font-size="32" x="0" y="39">CC: </tspan><tspan font-family="Wingdings,Wingdings_MSFontService,sans-serif" font-size="32" x="71.0417" y="39"></tspan><tspan font-size="32" x="0" y="77">Codel</tspan><tspan font-size="32" x="88.8021" y="77"> </tspan>Edge<tspan font-weight="700" font-size="32" x="0" y="116">x</tspan><tspan font-size="32" x="17.7604" y="116">: Transition </tspan><tspan font-size="32" x="248.646" y="116">Codel</tspan></text><rect x="756.5" y="1347.5" width="65" height="65" stroke="#000000" stroke-width="1.14583" stroke-miterlimit="8" fill="#00FF00"/><rect x="821.5" y="1347.5" width="64.9999" height="65" stroke="#000000" stroke-width="1.14583" stroke-miterlimit="8" fill="#FF00FF"/><rect x="886.5" y="1347.5" width="64.9999" height="65" stroke="#000000" stroke-width="1.14583" stroke-miterlimit="8" fill="#FF00FF"/><rect x="951.5" y="1347.5" width="65" height="65" stroke="#000000" stroke-width="1.14583" stroke-miterlimit="8" fill="#FF00FF"/><rect x="1016.5" y="1347.5" width="64.9999" height="65" stroke="#000000" stroke-width="1.14583" stroke-miterlimit="8" fill="#FFFFFF"/><rect x="756.5" y="1412.5" width="65" height="65" stroke="#000000" stroke-width="1.14583" stroke-miterlimit="8" fill="#00FF00"/><rect x="821.5" y="1412.5" width="64.9999" height="65" stroke="#000000" stroke-width="1.14583" stroke-miterlimit="8" fill="#00FF00"/><rect x="951.5" y="1412.5" width="65" height="65" stroke="#000000" stroke-width="1.14583" stroke-miterlimit="8" fill="#FF00FF"/><rect x="1016.5" y="1412.5" width="64.9999" height="65" stroke="#000000" stroke-width="1.14583" stroke-miterlimit="8" fill="#FFFFFF"/><rect x="756.5" y="1477.5" width="65" height="65" stroke="#000000" stroke-width="1.14583" stroke-miterlimit="8" fill="#FFFFFF"/><rect x="821.5" y="1477.5" width="64.9999" height="65" stroke="#000000" stroke-width="1.14583" stroke-miterlimit="8" fill="#00FF00"/><rect x="886.5" y="1477.5" width="64.9999" height="65" stroke="#000000" stroke-width="1.14583" stroke-miterlimit="8" fill="#C0FFFF"/><rect x="951.5" y="1477.5" width="65" height="65" stroke="#000000" stroke-width="1.14583" stroke-miterlimit="8" fill="#C0FFFF"/><rect x="1016.5" y="1477.5" width="64.9999" height="65" stroke="#000000" stroke-width="1.14583" stroke-miterlimit="8" fill="#FFFFFF"/><rect x="756.5" y="1542.5" width="65" height="65" stroke="#000000" stroke-width="1.14583" stroke-miterlimit="8" fill="#FFFFFF"/><rect x="821.5" y="1542.5" width="64.9999" height="65" stroke="#000000" stroke-width="1.14583" stroke-miterlimit="8" fill="#00FF00"/><rect x="951.5" y="1542.5" width="65" height="65" stroke="#000000" stroke-width="1.14583" stroke-miterlimit="8" fill="#C0FFFF"/><rect x="1016.5" y="1542.5" width="64.9999" height="65" stroke="#000000" stroke-width="1.14583" stroke-miterlimit="8" fill="#C0FFFF"/><rect x="756.5" y="1601.5" width="65" height="65" stroke="#000000" stroke-width="1.14583" stroke-miterlimit="8" fill="#FFFFFF"/><rect x="821.5" y="1601.5" width="64.9999" height="65" stroke="#000000" stroke-width="1.14583" stroke-miterlimit="8" fill="#FFFFFF"/><rect x="886.5" y="1601.5" width="64.9999" height="65" stroke="#000000" stroke-width="1.14583" stroke-miterlimit="8" fill="#FFFFFF"/><rect x="951.5" y="1601.5" width="65" height="65" stroke="#000000" stroke-width="1.14583" stroke-miterlimit="8" fill="#FFFFFF"/><rect x="1016.5" y="1601.5" width="64.9999" height="65" stroke="#000000" stroke-width="1.14583" stroke-miterlimit="8" fill="#FFFFFF"/><rect x="886" y="1412" width="65.0003" height="65" stroke="#FF0000" stroke-width="10.3125" stroke-miterlimit="8" fill="#00FF00"/><path d="M755.33 1764.07 844.132 1764.07 844.132 1801.07 755.33 1801.07Z" fill="#FF0000" fill-rule="evenodd"/><path d="M844.133 1764.07 861.893 1764.07 861.893 1801.07 844.133 1801.07Z" fill="#FF0000" fill-rule="evenodd"/><path d="M861.893 1764.07 932.935 1764.07 932.935 1801.07 861.893 1801.07Z" fill="#FF0000" fill-rule="evenodd"/><path d="M755.33 1803.07 773.091 1803.07 773.091 1840.07 755.33 1840.07Z" fill="#FFFFFF" fill-rule="evenodd"/><path d="M773.091 1803.07 1003.98 1803.07 1003.98 1840.07 773.091 1840.07Z" fill="#FFFFFF" fill-rule="evenodd"/><path d="M1003.98 1803.07 1092.78 1803.07 1092.78 1840.07 1003.98 1840.07Z" fill="#FFFFFF" fill-rule="evenodd"/><text font-family="Consolas,Consolas_MSFontService,sans-serif" font-weight="400" font-size="32" transform="matrix(1 0 0 1 755.33 1716)">DP: <tspan font-family="Wingdings,Wingdings_MSFontService,sans-serif" font-size="32" x="71.0417" y="0"></tspan><tspan font-size="32" x="0" y="39">CC: </tspan><tspan font-family="Wingdings,Wingdings_MSFontService,sans-serif" font-size="32" x="71.0417" y="39"></tspan><tspan font-size="32" x="0" y="77">Codel</tspan><tspan font-size="32" x="88.8021" y="77"> </tspan><tspan font-size="32" x="106.563" y="77">Edge</tspan><tspan font-weight="700" font-size="32" x="0" y="116">x</tspan><tspan font-size="32" x="17.7604" y="116">: Transition </tspan><tspan font-size="32" x="248.646" y="116">Codel</tspan></text><rect x="886" y="1542" width="65.0003" height="65" stroke="#FF0000" stroke-width="10.3125" stroke-miterlimit="8" fill="#00FF00"/><path d="M912.108 1568.61C912.542 1568.61 912.89 1568.63 913.152 1568.65 913.414 1568.67 913.62 1568.7 913.77 1568.75 913.92 1568.79 914.032 1568.85 914.107 1568.93 914.182 1569 914.249 1569.09 914.309 1569.2L918.914 1576.72 923.586 1569.2C923.645 1569.11 923.713 1569.03 923.788 1568.95 923.863 1568.88 923.964 1568.81 924.091 1568.76 924.218 1568.71 924.398 1568.67 924.63 1568.65 924.862 1568.63 925.18 1568.61 925.585 1568.61 926.019 1568.61 926.374 1568.63 926.651 1568.66 926.928 1568.69 927.134 1568.75 927.269 1568.83 927.404 1568.91 927.464 1569.03 927.449 1569.18 927.434 1569.33 927.359 1569.51 927.224 1569.74L921.317 1579.13 927.561 1589.1C927.681 1589.31 927.741 1589.48 927.741 1589.63 927.741 1589.77 927.67 1589.89 927.527 1589.98 927.385 1590.06 927.168 1590.13 926.876 1590.17 926.584 1590.2 926.206 1590.22 925.742 1590.22 925.293 1590.22 924.937 1590.21 924.675 1590.19 924.413 1590.17 924.203 1590.13 924.046 1590.08 923.889 1590.02 923.769 1589.96 923.687 1589.87 923.604 1589.79 923.533 1589.7 923.473 1589.59L918.622 1581.57 913.793 1589.59C913.733 1589.7 913.661 1589.79 913.579 1589.87 913.497 1589.96 913.377 1590.02 913.22 1590.08 913.063 1590.13 912.857 1590.17 912.602 1590.19 912.348 1590.21 912.011 1590.22 911.591 1590.22 911.157 1590.22 910.802 1590.2 910.524 1590.17 910.247 1590.13 910.045 1590.06 909.918 1589.98 909.791 1589.89 909.731 1589.77 909.738 1589.63 909.746 1589.48 909.817 1589.31 909.952 1589.1L916.241 1579.24 910.289 1569.74C910.169 1569.53 910.105 1569.35 910.098 1569.21 910.09 1569.07 910.158 1568.95 910.3 1568.85 910.442 1568.75 910.659 1568.69 910.951 1568.66 911.243 1568.63 911.629 1568.61 912.108 1568.61Z" stroke="#000000" stroke-width="3" stroke-linejoin="round" stroke-miterlimit="10" fill-rule="evenodd"/><text fill="#000000" fill-opacity="0" font-family="Arial,Arial_MSFontService,sans-serif" font-size="21.6074" x="909.738" y="1587.52">x</text><rect x="1233.5" y="1347.5" width="65" height="65" stroke="#000000" stroke-width="1.14583" stroke-miterlimit="8" fill="#00FF00"/><rect x="1298.5" y="1347.5" width="65.0004" height="65" stroke="#000000" stroke-width="1.14583" stroke-miterlimit="8" fill="#FF00FF"/><rect x="1363.5" y="1347.5" width="65" height="65" stroke="#000000" stroke-width="1.14583" stroke-miterlimit="8" fill="#FF00FF"/><rect x="1428.5" y="1347.5" width="65" height="65" stroke="#000000" stroke-width="1.14583" stroke-miterlimit="8" fill="#FF00FF"/><rect x="1493.5" y="1347.5" width="65" height="65" stroke="#000000" stroke-width="1.14583" stroke-miterlimit="8" fill="#FFFFFF"/><rect x="1233.5" y="1412.5" width="65" height="65" stroke="#000000" stroke-width="1.14583" stroke-miterlimit="8" fill="#00FF00"/><rect x="1298.5" y="1412.5" width="65.0004" height="65" stroke="#000000" stroke-width="1.14583" stroke-miterlimit="8" fill="#00FF00"/><rect x="1428.5" y="1412.5" width="65" height="65" stroke="#000000" stroke-width="1.14583" stroke-miterlimit="8" fill="#FF00FF"/><rect x="1493.5" y="1412.5" width="65" height="65" stroke="#000000" stroke-width="1.14583" stroke-miterlimit="8" fill="#FFFFFF"/><rect x="1233.5" y="1477.5" width="65" height="65" stroke="#000000" stroke-width="1.14583" stroke-miterlimit="8" fill="#FFFFFF"/><rect x="1298.5" y="1477.5" width="65.0004" height="65" stroke="#000000" stroke-width="1.14583" stroke-miterlimit="8" fill="#00FF00"/><rect x="1428.5" y="1477.5" width="65" height="65" stroke="#000000" stroke-width="1.14583" stroke-miterlimit="8" fill="#C0FFFF"/><rect x="1493.5" y="1477.5" width="65" height="65" stroke="#000000" stroke-width="1.14583" stroke-miterlimit="8" fill="#FFFFFF"/><rect x="1233.5" y="1542.5" width="65" height="65" stroke="#000000" stroke-width="1.14583" stroke-miterlimit="8" fill="#FFFFFF"/><rect x="1298.5" y="1542.5" width="65.0004" height="65" stroke="#000000" stroke-width="1.14583" stroke-miterlimit="8" fill="#00FF00"/><rect x="1428.5" y="1542.5" width="65" height="65" stroke="#000000" stroke-width="1.14583" stroke-miterlimit="8" fill="#C0FFFF"/><rect x="1493.5" y="1542.5" width="65" height="65" stroke="#000000" stroke-width="1.14583" stroke-miterlimit="8" fill="#C0FFFF"/><rect x="1233.5" y="1601.5" width="65" height="65" stroke="#000000" stroke-width="1.14583" stroke-miterlimit="8" fill="#FFFFFF"/><rect x="1298.5" y="1601.5" width="65.0004" height="65" stroke="#000000" stroke-width="1.14583" stroke-miterlimit="8" fill="#FFFFFF"/><rect x="1363.5" y="1601.5" width="65" height="65" stroke="#000000" stroke-width="1.14583" stroke-miterlimit="8" fill="#FFFFFF"/><rect x="1428.5" y="1601.5" width="65" height="65" stroke="#000000" stroke-width="1.14583" stroke-miterlimit="8" fill="#FFFFFF"/><rect x="1493.5" y="1601.5" width="65" height="65" stroke="#000000" stroke-width="1.14583" stroke-miterlimit="8" fill="#FFFFFF"/><rect x="1363" y="1412" width="65" height="65" stroke="#FF0000" stroke-width="10.3125" stroke-miterlimit="8" fill="#00FF00"/><path d="M1231.74 1764.07 1320.54 1764.07 1320.54 1801.07 1231.74 1801.07Z" fill="#FF0000" fill-rule="evenodd"/><path d="M1320.54 1764.07 1338.3 1764.07 1338.3 1801.07 1320.54 1801.07Z" fill="#FF0000" fill-rule="evenodd"/><path d="M1338.3 1764.07 1409.34 1764.07 1409.34 1801.07 1338.3 1801.07Z" fill="#FF0000" fill-rule="evenodd"/><path d="M1231.74 1803.07 1249.5 1803.07 1249.5 1840.07 1231.74 1840.07Z" fill="#FFFFFF" fill-rule="evenodd"/><path d="M1249.5 1803.07 1480.38 1803.07 1480.38 1840.07 1249.5 1840.07Z" fill="#FFFFFF" fill-rule="evenodd"/><path d="M1480.38 1803.07 1569.18 1803.07 1569.18 1840.07 1480.38 1840.07Z" fill="#FFFFFF" fill-rule="evenodd"/><text font-family="Consolas,Consolas_MSFontService,sans-serif" font-weight="400" font-size="32" transform="matrix(1 0 0 1 1231.74 1716)">DP: <tspan font-family="Wingdings,Wingdings_MSFontService,sans-serif" font-size="32" x="71.0418" y="0"></tspan><tspan font-size="32" x="0" y="39">CC: </tspan><tspan font-family="Wingdings,Wingdings_MSFontService,sans-serif" font-size="32" x="71.0418" y="39"></tspan><tspan font-size="32" x="0" y="77">Codel</tspan><tspan font-size="32" x="88.8021" y="77"> </tspan><tspan font-size="32" x="106.563" y="77">Edge</tspan><tspan font-weight="700" font-size="32" x="0" y="116">x</tspan><tspan font-size="32" x="17.7605" y="116">: Transition </tspan><tspan font-size="32" x="248.646" y="116">Codel</tspan></text><rect x="1363" y="1542" width="65" height="65" stroke="#FF0000" stroke-width="10.3125" stroke-miterlimit="8" fill="#00FF00"/><path d="M1389.09 1568.61C1389.52 1568.61 1389.87 1568.63 1390.13 1568.65 1390.39 1568.67 1390.6 1568.7 1390.75 1568.75 1390.9 1568.79 1391.01 1568.85 1391.08 1568.93 1391.16 1569 1391.23 1569.09 1391.29 1569.2L1395.89 1576.72 1400.56 1569.2C1400.62 1569.11 1400.69 1569.03 1400.77 1568.95 1400.84 1568.88 1400.94 1568.81 1401.07 1568.76 1401.2 1568.71 1401.38 1568.67 1401.61 1568.65 1401.84 1568.63 1402.16 1568.61 1402.56 1568.61 1403 1568.61 1403.35 1568.63 1403.63 1568.66 1403.91 1568.69 1404.11 1568.75 1404.25 1568.83 1404.38 1568.91 1404.44 1569.03 1404.43 1569.18 1404.41 1569.33 1404.34 1569.51 1404.2 1569.74L1398.29 1579.13 1404.54 1589.1C1404.66 1589.31 1404.72 1589.48 1404.72 1589.63 1404.72 1589.77 1404.65 1589.89 1404.51 1589.98 1404.36 1590.06 1404.15 1590.13 1403.85 1590.17 1403.56 1590.2 1403.18 1590.22 1402.72 1590.22 1402.27 1590.22 1401.91 1590.21 1401.65 1590.19 1401.39 1590.17 1401.18 1590.13 1401.02 1590.08 1400.87 1590.02 1400.75 1589.96 1400.66 1589.87 1400.58 1589.79 1400.51 1589.7 1400.45 1589.59L1395.6 1581.57 1390.77 1589.59C1390.71 1589.7 1390.64 1589.79 1390.56 1589.87 1390.47 1589.96 1390.35 1590.02 1390.2 1590.08 1390.04 1590.13 1389.83 1590.17 1389.58 1590.19 1389.33 1590.21 1388.99 1590.22 1388.57 1590.22 1388.13 1590.22 1387.78 1590.2 1387.5 1590.17 1387.23 1590.13 1387.02 1590.06 1386.9 1589.98 1386.77 1589.89 1386.71 1589.77 1386.72 1589.63 1386.72 1589.48 1386.79 1589.31 1386.93 1589.1L1393.22 1579.24 1387.27 1569.74C1387.15 1569.53 1387.08 1569.35 1387.08 1569.21 1387.07 1569.07 1387.14 1568.95 1387.28 1568.85 1387.42 1568.75 1387.64 1568.69 1387.93 1568.66 1388.22 1568.63 1388.61 1568.61 1389.09 1568.61Z" stroke="#000000" stroke-width="3" stroke-linejoin="round" stroke-miterlimit="10" fill-rule="evenodd"/><text fill="#000000" fill-opacity="0" font-family="Arial,Arial_MSFontService,sans-serif" font-size="21.6074" x="1386.72" y="1587.52">x</text><rect x="1363" y="1477" width="65" height="65" stroke="#FF0000" stroke-width="10.3125" stroke-miterlimit="8" fill="#00FF00"/><text font-family="Consolas,Consolas_MSFontService,sans-serif" font-weight="400" font-size="32" transform="matrix(1 0 0 1 300.508 1301)">Example 4<tspan font-size="32" x="159.844" y="0">:</tspan><tspan font-size="32" x="931.227" y="-617">Example </tspan>3:<tspan font-size="32" x="451.757" y="-617">Example </tspan><tspan font-size="32" x="593.84" y="-617">2:</tspan><tspan font-size="32" x="934.778" y="0">Example </tspan><tspan font-size="32" x="1076.86" y="0">6:</tspan><tspan font-size="32" x="460.179" y="0">Example </tspan><tspan font-size="32" x="602.263" y="0">5:</tspan></text></g></svg>